<?xml version="1.0" encoding="UTF-8" standalone="no"?>
<!DOCTYPE svg PUBLIC "-//W3C//DTD SVG 1.1//EN" "http://www.w3.org/Graphics/SVG/1.1/DTD/svg11.dtd">
<!-- 由 Microsoft Visio, SVG Export 生成 logo.svg Page-1 -->
<svg xmlns="http://www.w3.org/2000/svg" xmlns:xlink="http://www.w3.org/1999/xlink" xmlns:ev="http://www.w3.org/2001/xml-events"
		xmlns:v="http://schemas.microsoft.com/visio/2003/SVGExtensions/" width="5.20591in" height="1.8974in"
		viewBox="0 0 374.825 136.613" xml:space="preserve" color-interpolation-filters="sRGB" class="st17">
	<v:documentProperties v:langID="2052" v:metric="true" v:viewMarkup="false">
		<v:userDefs>
			<v:ud v:nameU="msvSubprocessMaster" v:prompt="" v:val="VT4(Rectangle)"/>
			<v:ud v:nameU="msvNoAutoConnect" v:val="VT0(1):26"/>
		</v:userDefs>
	</v:documentProperties>

	<style type="text/css">
	<![CDATA[
		.st1 {visibility:visible}
		.st2 {fill:none;filter:url(#filter_2.6666667461395);stroke:none}
		.st3 {fill:#000000;filter:url(#filter_2.6666667461395);font-family:Comic Sans MS;font-size:4.99999em;font-style:italic;font-weight:bold;opacity:0.4}
		.st4 {fill:none;stroke:none;stroke-width:0.25}
		.st5 {fill:#4672c4;font-family:Comic Sans MS;font-size:4.99999em;font-style:italic;font-weight:bold}
		.st6 {fill:#000000;fill-opacity:0.4;filter:url(#filter_2.6666667461395);stroke:none;stroke-linecap:round;stroke-linejoin:round}
		.st7 {fill:#c55a11;stroke:none;stroke-linecap:round;stroke-linejoin:round;stroke-width:0.25}
		.st8 {fill:#000000;fill-opacity:0.4;filter:url(#filter_2.6666667461395);stroke:none}
		.st9 {fill:#833c0b;stroke:none;stroke-width:0.25}
		.st10 {fill:#bd701a;stroke:none;stroke-linecap:round;stroke-linejoin:round;stroke-width:0.25}
		.st11 {stroke:url(#grad0-44);stroke-linecap:round;stroke-linejoin:round;stroke-width:2}
		.st12 {fill:#2b862b;fill-opacity:0.4;filter:url(#filter_2.6666667461395);stroke:none}
		.st13 {fill:#2b862b;stroke:none;stroke-width:0.25}
		.st14 {fill:#2b862b;fill-opacity:0.4;filter:url(#filter_2.6666667461395);stroke:none;stroke-linecap:round;stroke-linejoin:round}
		.st15 {fill:#2b862b;stroke:none;stroke-linecap:round;stroke-linejoin:round;stroke-width:0.25}
		.st16 {fill:#4672c4;stroke:none;stroke-width:0.25}
		.st17 {fill:none;fill-rule:evenodd;font-size:12px;overflow:visible;stroke-linecap:square;stroke-miterlimit:3}
	]]>
	</style>

	<defs id="Patterns_And_Gradients">
		<linearGradient id="grad0-44" x1="0" y1="0" x2="1" y2="0" gradientTransform="rotate(0 0.5 0.5)">
			<stop offset="0" stop-color="#2b862b" stop-opacity="1"/>
			<stop offset="1" stop-color="#2b862b" stop-opacity="0"/>
		</linearGradient>
	</defs>
	<defs id="Filters">
		<filter id="filter_2.6666667461395">
			<feGaussianBlur stdDeviation="2.6666667461395"/>
		</filter>
	</defs>
	<g v:mID="0" v:index="1" v:groupContext="foregroundPage">
		<v:userDefs>
			<v:ud v:nameU="msvThemeOrder" v:val="VT0(0):26"/>
		</v:userDefs>
		<title>页-1</title>
		<v:pageProperties v:drawingScale="0.0393701" v:pageScale="0.0393701" v:drawingUnits="24" v:shadowOffsetX="8.50394"
				v:shadowOffsetY="-8.50394"/>
		<g id="group84-1" transform="translate(12.7025,-22.6772)" v:mID="84" v:groupContext="group">
			<title>工作表.84</title>
			<g id="shape30-2" v:mID="30" v:groupContext="shape" transform="translate(174.911,0)">
				<title>工作表.30</title>
				<desc>Splat</desc>
				<v:textBlock v:margins="rect(4,4,4,4)" v:tabSpace="42.5197"/>
				<v:textRect cx="86.9288" cy="97.7887" width="173.86" height="77.6488"/>
				<g id="shadow30-3" v:groupContext="shadow" v:shadowOffsetX="2.12132" v:shadowOffsetY="2.12132" v:shadowType="1"
						transform="matrix(1,0,0,1,2.12132,-2.12132)" class="st1">
					<rect x="0" y="58.9643" width="173.858" height="77.6488" class="st2"/>
					<text x="11.06" y="115.79" class="st3" v:langID="2052"><v:paragraph v:horizAlign="1"/><v:tabList/>Splat</text>				</g>
				<rect x="0" y="58.9643" width="173.858" height="77.6488" class="st4"/>
				<text x="11.06" y="115.79" class="st5" v:langID="2052"><v:paragraph v:horizAlign="1"/><v:tabList/>Splat</text>			</g>
			<g id="shape1-10" v:mID="1" v:groupContext="shape" transform="translate(13.853,-18.6623) rotate(6)">
				<title>矩形</title>
				<v:userDefs>
					<v:ud v:nameU="visVersion" v:val="VT0(15):26"/>
				</v:userDefs>
				<g id="shadow1-11" v:groupContext="shadow" v:shadowOffsetX="3" v:shadowOffsetY="0" v:shadowType="1"
						v:shadowAngle="57" transform="matrix(1,0,0,1,2.98357,-0.313585)" class="st1">
					<rect x="0" y="74.6103" width="8.62049" height="62.0028" rx="4.31025" ry="4.31025" class="st6"/>
				</g>
				<rect x="0" y="74.6103" width="8.62049" height="62.0028" rx="4.31025" ry="4.31025" class="st7"/>
			</g>
			<g id="group3-15" transform="translate(36.846,-70.182) rotate(10)" v:mID="3" v:groupContext="group">
				<v:userDefs>
					<v:ud v:nameU="visVersion" v:prompt="" v:val="VT0(17):26"/>
				</v:userDefs>
				<title>齿轮</title>
				<g id="shape4-16" v:mID="4" v:groupContext="shape">
					<title>工作表.4</title>
					<g id="shadow4-17" v:groupContext="shadow" v:shadowOffsetX="3" v:shadowOffsetY="0" v:shadowType="1"
							v:shadowAngle="57" transform="matrix(1,0,0,1,2.95442,-0.520945)" class="st1">
						<path d="M7.13 136.61 C6.74 136.61 6.35 136.61 5.96 136.61 C5.82 136.54 5.76 136.42 5.74 136.27 C5.66 135.78
									 5.58 135.29 5.5 134.81 C5.48 134.71 5.46 134.65 5.35 134.63 C4.93 134.53 4.53 134.36 4.16 134.13
									 C4.08 134.09 4.03 134.09 3.96 134.14 C3.55 134.44 3.13 134.74 2.72 135.04 C2.52 135.18 2.39
									 135.17 2.22 135 C2.02 134.8 1.83 134.61 1.63 134.41 C1.44 134.22 1.43 134.1 1.59 133.89 C1.88
									 133.48 2.18 133.06 2.47 132.65 C2.52 132.59 2.53 132.54 2.49 132.46 C2.25 132.08 2.09 131.67
									 1.98 131.24 C1.96 131.16 1.92 131.13 1.85 131.12 C1.36 131.04 0.88 130.96 0.4 130.89 C0.23 130.86
									 0.09 130.81 0 130.66 C0 130.26 0 129.87 0 129.48 C0.08 129.34 0.2 129.28 0.36 129.25 C0.84 129.18
									 1.32 129.09 1.81 129.02 C1.92 129.01 1.96 128.96 1.99 128.86 C2.09 128.44 2.26 128.05 2.48 127.68
									 C2.53 127.61 2.53 127.56 2.47 127.48 C2.17 127.07 1.87 126.65 1.57 126.23 C1.44 126.05 1.45
									 125.91 1.61 125.75 C1.81 125.55 2.01 125.34 2.22 125.14 C2.39 124.97 2.52 124.96 2.72 125.1
									 C3.13 125.4 3.55 125.7 3.97 126 C4.03 126.04 4.07 126.05 4.14 126.01 C4.52 125.78 4.93 125.61
									 5.37 125.5 C5.45 125.48 5.48 125.44 5.49 125.37 C5.57 124.89 5.65 124.4 5.73 123.92 C5.75 123.75
									 5.8 123.61 5.96 123.52 C6.35 123.52 6.74 123.52 7.13 123.52 C7.27 123.6 7.33 123.71 7.36 123.87
									 C7.43 124.35 7.52 124.84 7.59 125.33 C7.61 125.44 7.65 125.49 7.76 125.51 C8.18 125.62 8.57
									 125.79 8.94 126.01 C9.01 126.05 9.06 126.05 9.12 126 C9.54 125.7 9.96 125.4 10.38 125.1 C10.57
									 124.96 10.7 124.97 10.87 125.14 C11.07 125.33 11.26 125.53 11.46 125.72 C11.65 125.92 11.66
									 126.03 11.51 126.25 C11.21 126.66 10.91 127.08 10.61 127.49 C10.57 127.55 10.56 127.59 10.6
									 127.66 C10.83 128.04 11 128.46 11.11 128.89 C11.13 128.98 11.17 129 11.25 129.01 C11.73 129.09
									 12.21 129.17 12.69 129.25 C12.86 129.27 13 129.33 13.09 129.48 C13.09 129.86 13.09 130.25 13.09
									 130.63 C13.03 130.78 12.92 130.85 12.76 130.87 C12.26 130.95 11.76 131.04 11.26 131.12 C11.18
									 131.13 11.13 131.16 11.11 131.25 C11 131.68 10.83 132.09 10.6 132.47 C10.56 132.54 10.57 132.58
									 10.61 132.64 C10.92 133.06 11.22 133.49 11.53 133.91 C11.65 134.09 11.64 134.23 11.49 134.38
									 C11.28 134.59 11.08 134.79 10.87 135 C10.7 135.17 10.58 135.18 10.38 135.04 C9.96 134.74 9.54
									 134.44 9.12 134.14 C9.06 134.09 9.01 134.08 8.94 134.13 C8.56 134.36 8.15 134.52 7.72 134.63
									 C7.64 134.65 7.61 134.69 7.6 134.77 C7.52 135.25 7.44 135.74 7.36 136.23 C7.34 136.39 7.28 136.53
									 7.13 136.61 ZM8.23 130.07 A1.68158 1.68162 -180 1 0 4.86 130.07 A1.68158 1.68162 -180 1 0 8.23
									 130.07 Z" class="st8"/>
					</g>
					<path d="M7.13 136.61 C6.74 136.61 6.35 136.61 5.96 136.61 C5.82 136.54 5.76 136.42 5.74 136.27 C5.66 135.78
								 5.58 135.29 5.5 134.81 C5.48 134.71 5.46 134.65 5.35 134.63 C4.93 134.53 4.53 134.36 4.16 134.13
								 C4.08 134.09 4.03 134.09 3.96 134.14 C3.55 134.44 3.13 134.74 2.72 135.04 C2.52 135.18 2.39 135.17
								 2.22 135 C2.02 134.8 1.83 134.61 1.63 134.41 C1.44 134.22 1.43 134.1 1.59 133.89 C1.88 133.48 2.18
								 133.06 2.47 132.65 C2.52 132.59 2.53 132.54 2.49 132.46 C2.25 132.08 2.09 131.67 1.98 131.24 C1.96
								 131.16 1.92 131.13 1.85 131.12 C1.36 131.04 0.88 130.96 0.4 130.89 C0.23 130.86 0.09 130.81 0 130.66
								 C0 130.26 0 129.87 0 129.48 C0.08 129.34 0.2 129.28 0.36 129.25 C0.84 129.18 1.32 129.09 1.81 129.02
								 C1.92 129.01 1.96 128.96 1.99 128.86 C2.09 128.44 2.26 128.05 2.48 127.68 C2.53 127.61 2.53 127.56
								 2.47 127.48 C2.17 127.07 1.87 126.65 1.57 126.23 C1.44 126.05 1.45 125.91 1.61 125.75 C1.81 125.55
								 2.01 125.34 2.22 125.14 C2.39 124.97 2.52 124.96 2.72 125.1 C3.13 125.4 3.55 125.7 3.97 126 C4.03
								 126.04 4.07 126.05 4.14 126.01 C4.52 125.78 4.93 125.61 5.37 125.5 C5.45 125.48 5.48 125.44 5.49
								 125.37 C5.57 124.89 5.65 124.4 5.73 123.92 C5.75 123.75 5.8 123.61 5.96 123.52 C6.35 123.52 6.74
								 123.52 7.13 123.52 C7.27 123.6 7.33 123.71 7.36 123.87 C7.43 124.35 7.52 124.84 7.59 125.33 C7.61
								 125.44 7.65 125.49 7.76 125.51 C8.18 125.62 8.57 125.79 8.94 126.01 C9.01 126.05 9.06 126.05 9.12
								 126 C9.54 125.7 9.96 125.4 10.38 125.1 C10.57 124.96 10.7 124.97 10.87 125.14 C11.07 125.33 11.26
								 125.53 11.46 125.72 C11.65 125.92 11.66 126.03 11.51 126.25 C11.21 126.66 10.91 127.08 10.61 127.49
								 C10.57 127.55 10.56 127.59 10.6 127.66 C10.83 128.04 11 128.46 11.11 128.89 C11.13 128.98 11.17
								 129 11.25 129.01 C11.73 129.09 12.21 129.17 12.69 129.25 C12.86 129.27 13 129.33 13.09 129.48 C13.09
								 129.86 13.09 130.25 13.09 130.63 C13.03 130.78 12.92 130.85 12.76 130.87 C12.26 130.95 11.76 131.04
								 11.26 131.12 C11.18 131.13 11.13 131.16 11.11 131.25 C11 131.68 10.83 132.09 10.6 132.47 C10.56
								 132.54 10.57 132.58 10.61 132.64 C10.92 133.06 11.22 133.49 11.53 133.91 C11.65 134.09 11.64 134.23
								 11.49 134.38 C11.28 134.59 11.08 134.79 10.87 135 C10.7 135.17 10.58 135.18 10.38 135.04 C9.96 134.74
								 9.54 134.44 9.12 134.14 C9.06 134.09 9.01 134.08 8.94 134.13 C8.56 134.36 8.15 134.52 7.72 134.63
								 C7.64 134.65 7.61 134.69 7.6 134.77 C7.52 135.25 7.44 135.74 7.36 136.23 C7.34 136.39 7.28 136.53
								 7.13 136.61 ZM8.23 130.07 A1.68158 1.68162 -180 1 0 4.86 130.07 A1.68158 1.68162 -180 1 0 8.23 130.07
								 Z" class="st9"/>
				</g>
			</g>
			<g id="shape7-21" v:mID="7" v:groupContext="shape" transform="translate(80.558,-31.8498) rotate(30)">
				<title>工作表.7</title>
				<g id="shadow7-22" v:groupContext="shadow" v:shadowOffsetX="3" v:shadowOffsetY="0" v:shadowType="1"
						v:shadowAngle="57" transform="matrix(1,0,0,1,2.59808,-1.5)" class="st1">
					<path d="M3.13 112.17 A10.3106 8.83089 0 0 1 1.81 129.28 A2.12598 2.12598 -180 0 0 -0 131.38 L0 131.84 A4.25197
								 4.25197 -180 0 0 5.29 135.96 A18.7182 16.0319 -180 0 0 2.36 104.68 A2.12598 2.12598 -180 0 0 0 106.79
								 L-0 108.07 A4.25197 4.25197 -180 0 0 3.13 112.17 Z" class="st6"/>
				</g>
				<path d="M3.13 112.17 A10.3106 8.83089 0 0 1 1.81 129.28 A2.12598 2.12598 -180 0 0 -0 131.38 L0 131.84 A4.25197 4.25197
							 -180 0 0 5.29 135.96 A18.7182 16.0319 -180 0 0 2.36 104.68 A2.12598 2.12598 -180 0 0 0 106.79 L-0 108.07
							 A4.25197 4.25197 -180 0 0 3.13 112.17 Z" class="st10"/>
			</g>
			<g id="shape12-26" v:mID="12" v:groupContext="shape" transform="translate(57.7844,-20.7241) rotate(10)">
				<title>工作表.12</title>
				<g id="shadow12-27" v:groupContext="shadow" v:shadowOffsetX="3" v:shadowOffsetY="0" v:shadowType="1"
						v:shadowAngle="57" transform="matrix(1,0,0,1,2.95442,-0.520945)" class="st1">
					<path d="M18.55 127.44 A8.7537 9.10615 0 1 1 22.53 110.94 L22.53 107.5 A7.08661 7.08661 -180 0 0 13.95 100.57
								 A17.5074 18.2123 -180 0 0 19.38 136.51 A3.54331 3.54331 -180 0 0 22.53 132.99 L22.53 130.96 A3.54331
								 3.54331 -180 0 0 18.55 127.44 Z" class="st6"/>
				</g>
				<path d="M18.55 127.44 A8.7537 9.10615 0 1 1 22.53 110.94 L22.53 107.5 A7.08661 7.08661 -180 0 0 13.95 100.57 A17.5074
							 18.2123 -180 0 0 19.38 136.51 A3.54331 3.54331 -180 0 0 22.53 132.99 L22.53 130.96 A3.54331 3.54331
							 -180 0 0 18.55 127.44 Z" class="st7"/>
			</g>
			<g id="group13-31" transform="translate(17.176,-34.6273) rotate(-20)" v:mID="13" v:groupContext="group">
				<v:userDefs>
					<v:ud v:nameU="visVersion" v:prompt="" v:val="VT0(17):26"/>
				</v:userDefs>
				<title>齿轮.13</title>
				<g id="shape14-32" v:mID="14" v:groupContext="shape">
					<title>工作表.14</title>
					<g id="shadow14-33" v:groupContext="shadow" v:shadowOffsetX="3" v:shadowOffsetY="0" v:shadowType="1"
							v:shadowAngle="57" transform="matrix(1,0,0,1,2.81908,1.02606)" class="st1">
						<path d="M6.7 136.61 C6.33 136.61 5.97 136.61 5.6 136.61 C5.47 136.54 5.41 136.43 5.39 136.29 C5.32 135.83
									 5.24 135.37 5.17 134.91 C5.15 134.82 5.13 134.77 5.02 134.75 C4.63 134.65 4.26 134.49 3.91 134.28
									 C3.84 134.24 3.79 134.24 3.72 134.29 C3.33 134.57 2.94 134.85 2.55 135.13 C2.37 135.26 2.24
									 135.25 2.09 135.1 C1.9 134.91 1.72 134.73 1.53 134.54 C1.35 134.36 1.34 134.26 1.49 134.05 C1.77
									 133.67 2.04 133.28 2.32 132.89 C2.37 132.83 2.38 132.79 2.34 132.71 C2.12 132.36 1.96 131.97
									 1.86 131.57 C1.84 131.49 1.81 131.46 1.74 131.45 C1.28 131.38 0.83 131.3 0.37 131.23 C0.21 131.21
									 0.08 131.16 0 131.02 C0 130.65 0 130.28 0 129.91 C0.07 129.78 0.19 129.72 0.34 129.7 C0.79 129.63
									 1.24 129.55 1.7 129.48 C1.8 129.46 1.85 129.43 1.87 129.33 C1.97 128.93 2.12 128.57 2.33 128.22
									 C2.37 128.15 2.37 128.1 2.32 128.03 C2.04 127.64 1.76 127.25 1.48 126.86 C1.35 126.68 1.36 126.56
									 1.51 126.41 C1.7 126.21 1.89 126.02 2.09 125.83 C2.25 125.67 2.36 125.66 2.55 125.8 C2.94 126.08
									 3.34 126.36 3.73 126.64 C3.79 126.68 3.82 126.69 3.89 126.65 C4.25 126.43 4.64 126.27 5.05 126.17
									 C5.12 126.15 5.15 126.12 5.16 126.05 C5.23 125.59 5.31 125.14 5.38 124.69 C5.4 124.53 5.45 124.39
									 5.6 124.31 C5.97 124.31 6.33 124.31 6.7 124.31 C6.83 124.38 6.89 124.49 6.91 124.64 C6.98 125.09
									 7.06 125.55 7.13 126.01 C7.15 126.11 7.19 126.16 7.29 126.18 C7.68 126.28 8.05 126.44 8.4 126.65
									 C8.47 126.69 8.51 126.69 8.57 126.64 C8.96 126.36 9.36 126.08 9.75 125.79 C9.94 125.66 10.06
									 125.67 10.22 125.83 C10.4 126.01 10.58 126.2 10.77 126.38 C10.95 126.56 10.96 126.67 10.81 126.87
									 C10.53 127.26 10.25 127.65 9.97 128.04 C9.93 128.1 9.92 128.14 9.96 128.2 C10.18 128.56 10.34
									 128.95 10.44 129.36 C10.46 129.44 10.5 129.46 10.57 129.47 C11.02 129.54 11.47 129.62 11.93
									 129.69 C12.09 129.71 12.22 129.77 12.3 129.91 C12.3 130.27 12.3 130.63 12.3 130.99 C12.25 131.13
									 12.14 131.2 11.99 131.22 C11.52 131.29 11.05 131.37 10.58 131.45 C10.5 131.46 10.46 131.48 10.44
									 131.57 C10.34 131.98 10.18 132.36 9.96 132.72 C9.92 132.78 9.93 132.82 9.97 132.88 C10.26 133.28
									 10.55 133.68 10.83 134.08 C10.95 134.24 10.94 134.37 10.79 134.52 C10.6 134.71 10.41 134.9 10.22
									 135.09 C10.06 135.26 9.94 135.27 9.75 135.13 C9.36 134.85 8.96 134.57 8.57 134.28 C8.51 134.24
									 8.47 134.24 8.4 134.28 C8.05 134.49 7.66 134.65 7.26 134.75 C7.18 134.77 7.15 134.81 7.14 134.88
									 C7.07 135.34 6.99 135.79 6.92 136.25 C6.9 136.41 6.84 136.53 6.7 136.61 ZM7.73 130.46 A1.58006
									 1.5801 -180 1 0 4.57 130.46 A1.58006 1.5801 -180 1 0 7.73 130.46 Z" class="st8"/>
					</g>
					<path d="M6.7 136.61 C6.33 136.61 5.97 136.61 5.6 136.61 C5.47 136.54 5.41 136.43 5.39 136.29 C5.32 135.83 5.24
								 135.37 5.17 134.91 C5.15 134.82 5.13 134.77 5.02 134.75 C4.63 134.65 4.26 134.49 3.91 134.28 C3.84
								 134.24 3.79 134.24 3.72 134.29 C3.33 134.57 2.94 134.85 2.55 135.13 C2.37 135.26 2.24 135.25 2.09
								 135.1 C1.9 134.91 1.72 134.73 1.53 134.54 C1.35 134.36 1.34 134.26 1.49 134.05 C1.77 133.67 2.04
								 133.28 2.32 132.89 C2.37 132.83 2.38 132.79 2.34 132.71 C2.12 132.36 1.96 131.97 1.86 131.57 C1.84
								 131.49 1.81 131.46 1.74 131.45 C1.28 131.38 0.83 131.3 0.37 131.23 C0.21 131.21 0.08 131.16 0 131.02
								 C0 130.65 0 130.28 0 129.91 C0.07 129.78 0.19 129.72 0.34 129.7 C0.79 129.63 1.24 129.55 1.7 129.48
								 C1.8 129.46 1.85 129.43 1.87 129.33 C1.97 128.93 2.12 128.57 2.33 128.22 C2.37 128.15 2.37 128.1
								 2.32 128.03 C2.04 127.64 1.76 127.25 1.48 126.86 C1.35 126.68 1.36 126.56 1.51 126.41 C1.7 126.21
								 1.89 126.02 2.09 125.83 C2.25 125.67 2.36 125.66 2.55 125.8 C2.94 126.08 3.34 126.36 3.73 126.64
								 C3.79 126.68 3.82 126.69 3.89 126.65 C4.25 126.43 4.64 126.27 5.05 126.17 C5.12 126.15 5.15 126.12
								 5.16 126.05 C5.23 125.59 5.31 125.14 5.38 124.69 C5.4 124.53 5.45 124.39 5.6 124.31 C5.97 124.31
								 6.33 124.31 6.7 124.31 C6.83 124.38 6.89 124.49 6.91 124.64 C6.98 125.09 7.06 125.55 7.13 126.01
								 C7.15 126.11 7.19 126.16 7.29 126.18 C7.68 126.28 8.05 126.44 8.4 126.65 C8.47 126.69 8.51 126.69
								 8.57 126.64 C8.96 126.36 9.36 126.08 9.75 125.79 C9.94 125.66 10.06 125.67 10.22 125.83 C10.4 126.01
								 10.58 126.2 10.77 126.38 C10.95 126.56 10.96 126.67 10.81 126.87 C10.53 127.26 10.25 127.65 9.97
								 128.04 C9.93 128.1 9.92 128.14 9.96 128.2 C10.18 128.56 10.34 128.95 10.44 129.36 C10.46 129.44
								 10.5 129.46 10.57 129.47 C11.02 129.54 11.47 129.62 11.93 129.69 C12.09 129.71 12.22 129.77 12.3
								 129.91 C12.3 130.27 12.3 130.63 12.3 130.99 C12.25 131.13 12.14 131.2 11.99 131.22 C11.52 131.29
								 11.05 131.37 10.58 131.45 C10.5 131.46 10.46 131.48 10.44 131.57 C10.34 131.98 10.18 132.36 9.96
								 132.72 C9.92 132.78 9.93 132.82 9.97 132.88 C10.26 133.28 10.55 133.68 10.83 134.08 C10.95 134.24
								 10.94 134.37 10.79 134.52 C10.6 134.71 10.41 134.9 10.22 135.09 C10.06 135.26 9.94 135.27 9.75 135.13
								 C9.36 134.85 8.96 134.57 8.57 134.28 C8.51 134.24 8.47 134.24 8.4 134.28 C8.05 134.49 7.66 134.65
								 7.26 134.75 C7.18 134.77 7.15 134.81 7.14 134.88 C7.07 135.34 6.99 135.79 6.92 136.25 C6.9 136.41
								 6.84 136.53 6.7 136.61 ZM7.73 130.46 A1.58006 1.5801 -180 1 0 4.57 130.46 A1.58006 1.5801 -180 1
								 0 7.73 130.46 Z" class="st9"/>
				</g>
			</g>
			<g id="shape18-37" v:mID="18" v:groupContext="shape" transform="translate(83.3036,-17.8332) rotate(10)">
				<title>工作表.18</title>
				<g id="shadow18-38" v:groupContext="shadow" v:shadowOffsetX="3" v:shadowOffsetY="0" v:shadowType="1"
						v:shadowAngle="57" transform="matrix(1,0,0,1,2.95442,-0.520945)" class="st1">
					<path d="M7.59 123.94 L7.59 114.78 A3.79586 3.79586 -180 0 0 3.8 110.98 L3.8 110.98 A3.79586 3.79586 -180 0 0
								 0 114.78 L0 127.43 L0 132.82 A3.79586 3.79586 -180 0 0 3.8 136.61 L7.59 136.61 L9.97 136.61 A4.59264
								 4.59264 -180 0 0 14.56 132.02 L14.56 130.91 A3.48398 3.48398 -180 0 0 11.08 127.43 L11.08 127.43
								 A3.48398 3.48398 0 0 1 7.59 123.94 Z" class="st6"/>
				</g>
				<path d="M7.59 123.94 L7.59 114.78 A3.79586 3.79586 -180 0 0 3.8 110.98 L3.8 110.98 A3.79586 3.79586 -180 0 0 0 114.78
							 L0 127.43 L0 132.82 A3.79586 3.79586 -180 0 0 3.8 136.61 L7.59 136.61 L9.97 136.61 A4.59264 4.59264
							 -180 0 0 14.56 132.02 L14.56 130.91 A3.48398 3.48398 -180 0 0 11.08 127.43 L11.08 127.43 A3.48398 3.48398
							 0 0 1 7.59 123.94 Z" class="st10"/>
			</g>
			<g id="shape59-42" v:mID="59" v:groupContext="shape" transform="translate(90.6231,-60.9861) rotate(-9.03299)">
				<title>工作表.59</title>
				<path d="M0 136.61 L67.71 136.61" class="st11"/>
			</g>
			<g id="shape61-48" v:mID="61" v:groupContext="shape" transform="translate(70.7337,-42.5283) rotate(-10.8383)">
				<title>工作表.61</title>
				<path d="M0 136.61 L92.98 136.61" class="st11"/>
			</g>
			<g id="shape62-53" v:mID="62" v:groupContext="shape" transform="translate(94.3909,-34.2964) rotate(-10.4146)">
				<title>工作表.62</title>
				<path d="M0 136.61 L72.43 136.61" class="st11"/>
			</g>
			<g id="shape63-58" v:mID="63" v:groupContext="shape" transform="translate(129.901,-30.2355) rotate(-9.03299)">
				<title>工作表.63</title>
				<path d="M0 136.61 L44.44 136.61" class="st11"/>
			</g>
			<g id="shape33-63" v:mID="33" v:groupContext="shape" transform="translate(142.86,-20.6121)">
				<title>环形</title>
				<v:userDefs>
					<v:ud v:nameU="visVersion" v:prompt="" v:val="VT0(15):26"/>
				</v:userDefs>
				<g id="shadow33-64" v:groupContext="shadow" v:shadowOffsetX="0" v:shadowOffsetY="0" v:shadowType="2"
						v:shadowScale="0.42" v:shadowAngle="57" transform="matrix(1,0,-0.352242,0.228748,48.1208,105.363)"
						class="st1">
					<path d="M40.77 118.4 A20.3862 18.2123 -180 1 0 -0 118.4 A20.3862 18.2123 -180 1 0 40.77 118.4 ZM9.51 118.4 A10.8726
								 9.71323 0 1 0 31.26 118.4 A10.8726 9.71323 0 1 0 9.51 118.4 Z" class="st12"/>
				</g>
				<path d="M40.77 118.4 A20.3862 18.2123 -180 1 0 -0 118.4 A20.3862 18.2123 -180 1 0 40.77 118.4 ZM9.51 118.4 A10.8726
							 9.71323 0 1 0 31.26 118.4 A10.8726 9.71323 0 1 0 9.51 118.4 Z" class="st13"/>
			</g>
			<g id="shape51-68" v:mID="51" v:groupContext="shape" transform="translate(78.9383,-20.6121)">
				<title>工作表.51</title>
				<g id="shadow51-69" v:groupContext="shadow" v:shadowOffsetX="0" v:shadowOffsetY="0" v:shadowType="2"
						v:shadowScale="0.42" v:shadowAngle="57" transform="matrix(1,0,-0.352242,0.228748,48.1208,105.363)"
						class="st1">
					<path d="M54.94 85.4 A7.41032 8.09436 -180 0 0 49.49 89.48 L35.53 116.92 L32.7 90.46 A5.32563 5.81723 -180 0
								 0 32.1 88.38 A3.26937 3.57117 -180 0 0 28.86 85.32 L27.66 85.32 A7.41032 8.09436 -180 0 0 27.52
								 85.32 A5.32563 5.81723 -180 0 0 27.41 85.32 A4.21749 4.6068 -180 0 0 26.63 85.4 A7.41032 8.09436
								 -180 0 0 21.18 89.48 L0.5 130.13 A3.97444 4.34132 -180 0 0 3.97 136.58 A7.41032 8.09436 -180 0 0
								 10.45 132.41 L24.71 104.4 L27.61 131.47 A5.32563 5.81723 -180 0 0 29.23 135.01 A3.97444 4.34132
								 -180 0 0 32.28 136.58 L32.3 136.58 A5.32563 5.81723 -180 0 0 32.9 136.61 A4.21749 4.6068 -180 0
								 0 34.93 136.04 A7.41032 8.09436 -180 0 0 38.76 132.41 L53.02 104.4 L55.91 131.47 A5.32563 5.81723
								 -180 0 0 61.2 136.61 A4.21749 4.6068 -180 0 0 65.39 131.47 L61 90.46 A5.32563 5.81723 -180 0 0 60.4
								 88.38 A3.26937 3.57117 -180 0 0 57.17 85.32 L55.97 85.32 A7.41032 8.09436 -180 0 0 55.83 85.32 A5.32563
								 5.81723 -180 0 0 55.71 85.32 A4.21749 4.6068 -180 0 0 54.94 85.4 Z" class="st14"/>
				</g>
				<path d="M54.94 85.4 A7.41032 8.09436 -180 0 0 49.49 89.48 L35.53 116.92 L32.7 90.46 A5.32563 5.81723 -180 0 0 32.1
							 88.38 A3.26937 3.57117 -180 0 0 28.86 85.32 L27.66 85.32 A7.41032 8.09436 -180 0 0 27.52 85.32 A5.32563
							 5.81723 -180 0 0 27.41 85.32 A4.21749 4.6068 -180 0 0 26.63 85.4 A7.41032 8.09436 -180 0 0 21.18 89.48
							 L0.5 130.13 A3.97444 4.34132 -180 0 0 3.97 136.58 A7.41032 8.09436 -180 0 0 10.45 132.41 L24.71 104.4
							 L27.61 131.47 A5.32563 5.81723 -180 0 0 29.23 135.01 A3.97444 4.34132 -180 0 0 32.28 136.58 L32.3 136.58
							 A5.32563 5.81723 -180 0 0 32.9 136.61 A4.21749 4.6068 -180 0 0 34.93 136.04 A7.41032 8.09436 -180 0
							 0 38.76 132.41 L53.02 104.4 L55.91 131.47 A5.32563 5.81723 -180 0 0 61.2 136.61 A4.21749 4.6068 -180
							 0 0 65.39 131.47 L61 90.46 A5.32563 5.81723 -180 0 0 60.4 88.38 A3.26937 3.57117 -180 0 0 57.17 85.32
							 L55.97 85.32 A7.41032 8.09436 -180 0 0 55.83 85.32 A5.32563 5.81723 -180 0 0 55.71 85.32 A4.21749 4.6068
							 -180 0 0 54.94 85.4 Z" class="st15"/>
			</g>
			<g id="shape70-73" v:mID="70" v:groupContext="shape" transform="translate(248.397,205.917) rotate(-165)">
				<title>椭圆形.67</title>
				<v:userDefs>
					<v:ud v:nameU="visVersion" v:val="VT0(15):26"/>
				</v:userDefs>
				<g id="shadow70-74" v:groupContext="shadow" v:shadowOffsetX="3" v:shadowOffsetY="0" v:shadowType="1"
						transform="matrix(1,0,0,1,-2.89778,0.776457)" class="st1">
					<path d="M0 132.14 A1.4955 4.46843 0 1 1 2.99 132.14 A1.4955 4.46843 0 1 1 0 132.14 Z" class="st8"/>
				</g>
				<path d="M0 132.14 A1.4955 4.46843 0 1 1 2.99 132.14 A1.4955 4.46843 0 1 1 0 132.14 Z" class="st16"/>
			</g>
			<g id="shape72-78" v:mID="72" v:groupContext="shape" transform="translate(106.688,168.364) rotate(-135)">
				<title>椭圆形.72</title>
				<v:userDefs>
					<v:ud v:nameU="visVersion" v:val="VT0(15):26"/>
				</v:userDefs>
				<g id="shadow72-79" v:groupContext="shadow" v:shadowOffsetX="3" v:shadowOffsetY="0" v:shadowType="1"
						transform="matrix(1,0,0,1,-2.12132,2.12132)" class="st1">
					<path d="M0 130.9 A1.98132 5.70849 0 1 1 3.96 130.9 A1.98132 5.70849 0 1 1 -0 130.9 Z" class="st8"/>
				</g>
				<path d="M0 130.9 A1.98132 5.70849 0 1 1 3.96 130.9 A1.98132 5.70849 0 1 1 -0 130.9 Z" class="st16"/>
			</g>
			<g id="shape73-83" v:mID="73" v:groupContext="shape" transform="translate(181.338,231.872) rotate(-165)">
				<title>椭圆形.73</title>
				<v:userDefs>
					<v:ud v:nameU="visVersion" v:val="VT0(15):26"/>
				</v:userDefs>
				<g id="shadow73-84" v:groupContext="shadow" v:shadowOffsetX="3" v:shadowOffsetY="0" v:shadowType="1"
						transform="matrix(1,0,0,1,-2.89778,0.776457)" class="st1">
					<path d="M0 133.5 A1.73303 3.10821 0 0 1 3.47 133.5 A1.73303 3.10821 0 1 1 0 133.5 Z" class="st8"/>
				</g>
				<path d="M0 133.5 A1.73303 3.10821 0 0 1 3.47 133.5 A1.73303 3.10821 0 1 1 0 133.5 Z" class="st16"/>
			</g>
			<g id="shape74-88" v:mID="74" v:groupContext="shape" transform="translate(310.65,237.043) rotate(180)">
				<title>椭圆形.74</title>
				<v:userDefs>
					<v:ud v:nameU="visVersion" v:val="VT0(15):26"/>
				</v:userDefs>
				<g id="shadow74-89" v:groupContext="shadow" v:shadowOffsetX="3" v:shadowOffsetY="0" v:shadowType="1"
						transform="matrix(1,0,0,1,-3,-2.84217E-14)" class="st1">
					<path d="M0 132.14 A1.27484 4.46843 0 0 1 2.55 132.14 A1.27484 4.46843 0 0 1 0 132.14 Z" class="st8"/>
				</g>
				<path d="M0 132.14 A1.27484 4.46843 0 0 1 2.55 132.14 A1.27484 4.46843 0 0 1 0 132.14 Z" class="st16"/>
			</g>
			<g id="shape76-93" v:mID="76" v:groupContext="shape" transform="translate(84.9844,72.4585) rotate(-83)">
				<title>椭圆形.76</title>
				<v:userDefs>
					<v:ud v:nameU="visVersion" v:val="VT0(15):26"/>
				</v:userDefs>
				<g id="shadow76-94" v:groupContext="shadow" v:shadowOffsetX="3" v:shadowOffsetY="0" v:shadowType="1"
						transform="matrix(1,0,0,1,0.365608,2.97764)" class="st1">
					<path d="M0 128.57 a0.867069 8.03899 0 1 1 1.73414 -1.13687E-13 a0.867069 8.03899 0 1 1 -1.73414 0 Z"
							class="st8"/>
				</g>
				<path d="M0 128.57 a0.867069 8.03899 0 1 1 1.73414 -1.13687E-13 a0.867069 8.03899 0 1 1 -1.73414 0 Z" class="st16"/>
			</g>
			<g id="shape77-98" v:mID="77" v:groupContext="shape" transform="translate(247.868,-5.25873) rotate(10)">
				<title>椭圆形.77</title>
				<v:userDefs>
					<v:ud v:nameU="visVersion" v:val="VT0(15):26"/>
				</v:userDefs>
				<g id="shadow77-99" v:groupContext="shadow" v:shadowOffsetX="3" v:shadowOffsetY="0" v:shadowType="1"
						transform="matrix(1,0,0,1,2.95442,-0.520945)" class="st1">
					<path d="M0 128.57 a0.958973 8.03899 0 1 1 1.91795 -1.13687E-13 a0.958973 8.03899 0 1 1 -1.91795 0 Z"
							class="st8"/>
				</g>
				<path d="M0 128.57 a0.958973 8.03899 0 1 1 1.91795 -1.13687E-13 a0.958973 8.03899 0 1 1 -1.91795 0 Z" class="st16"/>
			</g>
			<g id="shape78-103" v:mID="78" v:groupContext="shape" transform="translate(289.164,225.518) rotate(-165)">
				<title>椭圆形.78</title>
				<v:userDefs>
					<v:ud v:nameU="visVersion" v:val="VT0(15):26"/>
				</v:userDefs>
				<g id="shadow78-104" v:groupContext="shadow" v:shadowOffsetX="3" v:shadowOffsetY="0" v:shadowType="1"
						transform="matrix(1,0,0,1,-2.89778,0.776457)" class="st1">
					<path d="M0 132.14 a0.943508 4.46843 0 1 1 1.88702 -5.68434E-14 a0.943508 4.46843 0 1 1 -1.88702 0 Z"
							class="st8"/>
				</g>
				<path d="M0 132.14 a0.943508 4.46843 0 1 1 1.88702 -5.68434E-14 a0.943508 4.46843 0 1 1 -1.88702 0 Z" class="st16"/>
			</g>
			<g id="shape79-108" v:mID="79" v:groupContext="shape" transform="translate(347.952,238.791) rotate(180)">
				<title>椭圆形.79</title>
				<v:userDefs>
					<v:ud v:nameU="visVersion" v:val="VT0(15):26"/>
				</v:userDefs>
				<g id="shadow79-109" v:groupContext="shadow" v:shadowOffsetX="3" v:shadowOffsetY="0" v:shadowType="1"
						transform="matrix(1,0,0,1,-3,-2.84217E-14)" class="st1">
					<path d="M0 132.74 A3.71942 3.86955 0 1 1 7.44 132.74 A3.71942 3.86955 0 0 1 0 132.74 Z" class="st8"/>
				</g>
				<path d="M0 132.74 A3.71942 3.86955 0 1 1 7.44 132.74 A3.71942 3.86955 0 0 1 0 132.74 Z" class="st16"/>
			</g>
			<g id="shape80-113" v:mID="80" v:groupContext="shape" transform="translate(153.962,-19.6216) rotate(-40)">
				<title>椭圆形.80</title>
				<v:userDefs>
					<v:ud v:nameU="visVersion" v:val="VT0(15):26"/>
				</v:userDefs>
				<g id="shadow80-114" v:groupContext="shadow" v:shadowOffsetX="3" v:shadowOffsetY="0" v:shadowType="1"
						transform="matrix(1,-5.55112E-17,5.55112E-17,1,2.29813,1.92836)" class="st1">
					<path d="M0 133.57 A1.5191 3.04112 0 0 1 3.04 133.57 A1.5191 3.04112 0 0 1 0 133.57 Z" class="st8"/>
				</g>
				<path d="M0 133.57 A1.5191 3.04112 0 0 1 3.04 133.57 A1.5191 3.04112 0 0 1 0 133.57 Z" class="st16"/>
			</g>
			<g id="shape81-118" v:mID="81" v:groupContext="shape" transform="translate(256.638,231.13) rotate(-165)">
				<title>椭圆形.81</title>
				<v:userDefs>
					<v:ud v:nameU="visVersion" v:val="VT0(15):26"/>
				</v:userDefs>
				<g id="shadow81-119" v:groupContext="shadow" v:shadowOffsetX="3" v:shadowOffsetY="0" v:shadowType="1"
						transform="matrix(1,0,0,1,-2.89778,0.776457)" class="st1">
					<path d="M0 132.14 A1.19427 4.46843 0 0 1 2.39 132.14 A1.19427 4.46843 0 1 1 0 132.14 Z" class="st8"/>
				</g>
				<path d="M0 132.14 A1.19427 4.46843 0 0 1 2.39 132.14 A1.19427 4.46843 0 1 1 0 132.14 Z" class="st16"/>
			</g>
			<g id="shape82-123" v:mID="82" v:groupContext="shape" transform="translate(406.753,212.45) rotate(135)">
				<title>椭圆形.82</title>
				<v:userDefs>
					<v:ud v:nameU="visVersion" v:val="VT0(15):26"/>
				</v:userDefs>
				<g id="shadow82-124" v:groupContext="shadow" v:shadowOffsetX="3" v:shadowOffsetY="0" v:shadowType="1"
						transform="matrix(1,0,0,1,-2.12132,-2.12132)" class="st1">
					<path d="M0 133.37 A3.79095 3.24058 0 0 1 7.58 133.37 A3.79095 3.24058 0 0 1 0 133.37 Z" class="st8"/>
				</g>
				<path d="M0 133.37 A3.79095 3.24058 0 0 1 7.58 133.37 A3.79095 3.24058 0 0 1 0 133.37 Z" class="st16"/>
			</g>
		</g>
	</g>
</svg>
