<?xml version="1.0" encoding="UTF-8" standalone="no"?>
<!DOCTYPE svg PUBLIC "-//W3C//DTD SVG 1.1//EN" "http://www.w3.org/Graphics/SVG/1.1/DTD/svg11.dtd">
<!-- 由 Microsoft Visio, SVG Export 生成 logo.svg Page-1 -->
<svg xmlns="http://www.w3.org/2000/svg" xmlns:xlink="http://www.w3.org/1999/xlink" xmlns:ev="http://www.w3.org/2001/xml-events"
		xmlns:v="http://schemas.microsoft.com/visio/2003/SVGExtensions/" width="4.92126in" height="1.1811in"
		viewBox="0 0 354.331 85.0394" xml:space="preserve" color-interpolation-filters="sRGB" class="st17">
	<v:documentProperties v:langID="2052" v:metric="true" v:viewMarkup="false">
		<v:userDefs>
			<v:ud v:nameU="msvSubprocessMaster" v:prompt="" v:val="VT4(Rectangle)"/>
			<v:ud v:nameU="msvNoAutoConnect" v:val="VT0(1):26"/>
		</v:userDefs>
	</v:documentProperties>

	<style type="text/css">
	<![CDATA[
		.st1 {visibility:visible}
		.st2 {fill:none;filter:url(#filter_2.6666667461395);stroke:none}
		.st3 {fill:#000000;filter:url(#filter_2.6666667461395);font-family:Comic Sans MS;font-size:4.99999em;font-style:italic;font-weight:bold;opacity:0.4}
		.st4 {fill:none;stroke:none;stroke-width:0.25}
		.st5 {fill:#4672c4;font-family:Comic Sans MS;font-size:4.99999em;font-style:italic;font-weight:bold}
		.st6 {fill:#000000;fill-opacity:0.4;filter:url(#filter_2.6666667461395);stroke:none;stroke-linecap:round;stroke-linejoin:round}
		.st7 {fill:#c55a11;stroke:none;stroke-linecap:round;stroke-linejoin:round;stroke-width:0.25}
		.st8 {fill:#000000;fill-opacity:0.4;filter:url(#filter_2.6666667461395);stroke:none}
		.st9 {fill:#833c0b;stroke:none;stroke-width:0.25}
		.st10 {fill:#bd701a;stroke:none;stroke-linecap:round;stroke-linejoin:round;stroke-width:0.25}
		.st11 {stroke:url(#grad0-44);stroke-linecap:round;stroke-linejoin:round;stroke-width:3}
		.st12 {fill:#2b862b;fill-opacity:0.4;filter:url(#filter_2.6666667461395);stroke:none}
		.st13 {fill:#2b862b;stroke:none;stroke-width:0.25}
		.st14 {fill:#2b862b;fill-opacity:0.4;filter:url(#filter_2.6666667461395);stroke:none;stroke-linecap:round;stroke-linejoin:round}
		.st15 {fill:#2b862b;stroke:none;stroke-linecap:round;stroke-linejoin:round;stroke-width:0.25}
		.st16 {fill:#4672c4;stroke:none;stroke-width:0.25}
		.st17 {fill:none;fill-rule:evenodd;font-size:12px;overflow:visible;stroke-linecap:square;stroke-miterlimit:3}
	]]>
	</style>

	<defs id="Patterns_And_Gradients">
		<linearGradient id="grad0-44" x1="0" y1="0" x2="1" y2="0" gradientTransform="rotate(0 0.5 0.5)">
			<stop offset="0" stop-color="#2b862b" stop-opacity="1"/>
			<stop offset="1" stop-color="#2b862b" stop-opacity="0"/>
		</linearGradient>
	</defs>
	<defs id="Filters">
		<filter id="filter_2.6666667461395">
			<feGaussianBlur stdDeviation="2.6666667461395"/>
		</filter>
	</defs>
	<g v:mID="0" v:index="1" v:groupContext="foregroundPage">
		<v:userDefs>
			<v:ud v:nameU="msvThemeOrder" v:val="VT0(0):26"/>
		</v:userDefs>
		<title>页-1</title>
		<v:pageProperties v:drawingScale="0.0393701" v:pageScale="0.0393701" v:drawingUnits="24" v:shadowOffsetX="8.50394"
				v:shadowOffsetY="-8.50394"/>
		<g id="group84-1" transform="translate(4.09529,0.808588)" v:mID="84" v:groupContext="group">
			<title>工作表.84</title>
			<g id="shape30-2" v:mID="30" v:groupContext="shape" transform="translate(174.911,0)">
				<title>工作表.30</title>
				<desc>Splat</desc>
				<v:textBlock v:margins="rect(4,4,4,4)" v:tabSpace="42.5197"/>
				<v:textRect cx="86.9288" cy="46.215" width="173.86" height="77.6488"/>
				<g id="shadow30-3" v:groupContext="shadow" v:shadowOffsetX="2.12132" v:shadowOffsetY="2.12132" v:shadowType="1"
						transform="matrix(1,0,0,1,2.12132,-2.12132)" class="st1">
					<rect x="0" y="7.39059" width="173.858" height="77.6488" class="st2"/>
					<text x="11.06" y="64.22" class="st3" v:langID="2052"><v:paragraph v:horizAlign="1"/><v:tabList/>Splat</text>				</g>
				<rect x="0" y="7.39059" width="173.858" height="77.6488" class="st4"/>
				<text x="11.06" y="64.22" class="st5" v:langID="2052"><v:paragraph v:horizAlign="1"/><v:tabList/>Splat</text>			</g>
			<g id="shape1-10" v:mID="1" v:groupContext="shape" transform="translate(8.4621,-18.9448) rotate(6)">
				<title>矩形</title>
				<v:userDefs>
					<v:ud v:nameU="visVersion" v:val="VT0(15):26"/>
				</v:userDefs>
				<g id="shadow1-11" v:groupContext="shadow" v:shadowOffsetX="3" v:shadowOffsetY="0" v:shadowType="1"
						v:shadowAngle="57" transform="matrix(1,0,0,1,2.98357,-0.313585)" class="st1">
					<rect x="0" y="23.0366" width="8.62049" height="62.0028" rx="4.31025" ry="4.31025" class="st6"/>
				</g>
				<rect x="0" y="23.0366" width="8.62049" height="62.0028" rx="4.31025" ry="4.31025" class="st7"/>
			</g>
			<g id="group3-15" transform="translate(27.8903,-70.9655) rotate(10)" v:mID="3" v:groupContext="group">
				<v:userDefs>
					<v:ud v:nameU="visVersion" v:prompt="" v:val="VT0(17):26"/>
				</v:userDefs>
				<title>齿轮</title>
				<g id="shape4-16" v:mID="4" v:groupContext="shape">
					<title>工作表.4</title>
					<g id="shadow4-17" v:groupContext="shadow" v:shadowOffsetX="3" v:shadowOffsetY="0" v:shadowType="1"
							v:shadowAngle="57" transform="matrix(1,0,0,1,2.95442,-0.520945)" class="st1">
						<path d="M7.13 85.04 C6.74 85.04 6.35 85.04 5.96 85.04 C5.82 84.96 5.76 84.85 5.74 84.69 C5.66 84.21 5.58
									 83.72 5.5 83.23 C5.48 83.13 5.46 83.08 5.35 83.05 C4.93 82.95 4.53 82.78 4.16 82.56 C4.08 82.51
									 4.03 82.51 3.96 82.57 C3.55 82.87 3.13 83.17 2.72 83.46 C2.52 83.6 2.39 83.59 2.22 83.42 C2.02
									 83.23 1.83 83.03 1.63 82.84 C1.44 82.65 1.43 82.53 1.59 82.31 C1.88 81.9 2.18 81.49 2.47 81.08
									 C2.52 81.01 2.53 80.97 2.49 80.89 C2.25 80.51 2.09 80.1 1.98 79.67 C1.96 79.59 1.92 79.56 1.85
									 79.55 C1.36 79.47 0.88 79.39 0.4 79.31 C0.23 79.29 0.09 79.23 0 79.08 C0 78.69 0 78.3 0 77.91
									 C0.08 77.77 0.2 77.7 0.36 77.68 C0.84 77.61 1.32 77.52 1.81 77.45 C1.92 77.43 1.96 77.39 1.99
									 77.28 C2.09 76.87 2.26 76.48 2.48 76.11 C2.53 76.03 2.53 75.98 2.47 75.91 C2.17 75.49 1.87 75.07
									 1.57 74.65 C1.44 74.47 1.45 74.34 1.61 74.18 C1.81 73.97 2.01 73.77 2.22 73.56 C2.39 73.39 2.52
									 73.38 2.72 73.53 C3.13 73.83 3.55 74.13 3.97 74.43 C4.03 74.47 4.07 74.48 4.14 74.44 C4.52 74.21
									 4.93 74.04 5.37 73.93 C5.45 73.91 5.48 73.87 5.49 73.79 C5.57 73.31 5.65 72.83 5.73 72.35 C5.75
									 72.18 5.8 72.04 5.96 71.95 C6.35 71.95 6.74 71.95 7.13 71.95 C7.27 72.02 7.33 72.14 7.36 72.29
									 C7.43 72.78 7.52 73.27 7.59 73.76 C7.61 73.86 7.65 73.91 7.76 73.94 C8.18 74.04 8.57 74.21 8.94
									 74.43 C9.01 74.48 9.06 74.48 9.12 74.43 C9.54 74.12 9.96 73.83 10.38 73.53 C10.57 73.38 10.7
									 73.39 10.87 73.56 C11.07 73.76 11.26 73.95 11.46 74.15 C11.65 74.34 11.66 74.46 11.51 74.67
									 C11.21 75.09 10.91 75.5 10.61 75.92 C10.57 75.98 10.56 76.02 10.6 76.09 C10.83 76.47 11 76.88
									 11.11 77.32 C11.13 77.4 11.17 77.43 11.25 77.44 C11.73 77.52 12.21 77.6 12.69 77.67 C12.86 77.7
									 13 77.75 13.09 77.91 C13.09 78.29 13.09 78.67 13.09 79.06 C13.03 79.21 12.92 79.28 12.76 79.3
									 C12.26 79.38 11.76 79.46 11.26 79.54 C11.18 79.56 11.13 79.58 11.11 79.68 C11 80.11 10.83 80.52
									 10.6 80.9 C10.56 80.96 10.57 81 10.61 81.06 C10.92 81.49 11.22 81.91 11.53 82.34 C11.65 82.51
									 11.64 82.66 11.49 82.81 C11.28 83.01 11.08 83.22 10.87 83.42 C10.7 83.59 10.58 83.61 10.38 83.46
									 C9.96 83.16 9.54 82.86 9.12 82.56 C9.06 82.51 9.01 82.51 8.94 82.55 C8.56 82.78 8.15 82.95 7.72
									 83.06 C7.64 83.08 7.61 83.12 7.6 83.19 C7.52 83.68 7.44 84.17 7.36 84.65 C7.34 84.82 7.28 84.95
									 7.13 85.04 ZM8.23 78.49 A1.68158 1.68162 -180 1 0 4.86 78.49 A1.68158 1.68162 -180 1 0 8.23
									 78.49 Z" class="st8"/>
					</g>
					<path d="M7.13 85.04 C6.74 85.04 6.35 85.04 5.96 85.04 C5.82 84.96 5.76 84.85 5.74 84.69 C5.66 84.21 5.58 83.72
								 5.5 83.23 C5.48 83.13 5.46 83.08 5.35 83.05 C4.93 82.95 4.53 82.78 4.16 82.56 C4.08 82.51 4.03 82.51
								 3.96 82.57 C3.55 82.87 3.13 83.17 2.72 83.46 C2.52 83.6 2.39 83.59 2.22 83.42 C2.02 83.23 1.83 83.03
								 1.63 82.84 C1.44 82.65 1.43 82.53 1.59 82.31 C1.88 81.9 2.18 81.49 2.47 81.08 C2.52 81.01 2.53 80.97
								 2.49 80.89 C2.25 80.51 2.09 80.1 1.98 79.67 C1.96 79.59 1.92 79.56 1.85 79.55 C1.36 79.47 0.88 79.39
								 0.4 79.31 C0.23 79.29 0.09 79.23 0 79.08 C0 78.69 0 78.3 0 77.91 C0.08 77.77 0.2 77.7 0.36 77.68
								 C0.84 77.61 1.32 77.52 1.81 77.45 C1.92 77.43 1.96 77.39 1.99 77.28 C2.09 76.87 2.26 76.48 2.48
								 76.11 C2.53 76.03 2.53 75.98 2.47 75.91 C2.17 75.49 1.87 75.07 1.57 74.65 C1.44 74.47 1.45 74.34
								 1.61 74.18 C1.81 73.97 2.01 73.77 2.22 73.56 C2.39 73.39 2.52 73.38 2.72 73.53 C3.13 73.83 3.55
								 74.13 3.97 74.43 C4.03 74.47 4.07 74.48 4.14 74.44 C4.52 74.21 4.93 74.04 5.37 73.93 C5.45 73.91
								 5.48 73.87 5.49 73.79 C5.57 73.31 5.65 72.83 5.73 72.35 C5.75 72.18 5.8 72.04 5.96 71.95 C6.35 71.95
								 6.74 71.95 7.13 71.95 C7.27 72.02 7.33 72.14 7.36 72.29 C7.43 72.78 7.52 73.27 7.59 73.76 C7.61
								 73.86 7.65 73.91 7.76 73.94 C8.18 74.04 8.57 74.21 8.94 74.43 C9.01 74.48 9.06 74.48 9.12 74.43
								 C9.54 74.12 9.96 73.83 10.38 73.53 C10.57 73.38 10.7 73.39 10.87 73.56 C11.07 73.76 11.26 73.95
								 11.46 74.15 C11.65 74.34 11.66 74.46 11.51 74.67 C11.21 75.09 10.91 75.5 10.61 75.92 C10.57 75.98
								 10.56 76.02 10.6 76.09 C10.83 76.47 11 76.88 11.11 77.32 C11.13 77.4 11.17 77.43 11.25 77.44 C11.73
								 77.52 12.21 77.6 12.69 77.67 C12.86 77.7 13 77.75 13.09 77.91 C13.09 78.29 13.09 78.67 13.09 79.06
								 C13.03 79.21 12.92 79.28 12.76 79.3 C12.26 79.38 11.76 79.46 11.26 79.54 C11.18 79.56 11.13 79.58
								 11.11 79.68 C11 80.11 10.83 80.52 10.6 80.9 C10.56 80.96 10.57 81 10.61 81.06 C10.92 81.49 11.22
								 81.91 11.53 82.34 C11.65 82.51 11.64 82.66 11.49 82.81 C11.28 83.01 11.08 83.22 10.87 83.42 C10.7
								 83.59 10.58 83.61 10.38 83.46 C9.96 83.16 9.54 82.86 9.12 82.56 C9.06 82.51 9.01 82.51 8.94 82.55
								 C8.56 82.78 8.15 82.95 7.72 83.06 C7.64 83.08 7.61 83.12 7.6 83.19 C7.52 83.68 7.44 84.17 7.36 84.65
								 C7.34 84.82 7.28 84.95 7.13 85.04 ZM8.23 78.49 A1.68158 1.68162 -180 1 0 4.86 78.49 A1.68158 1.68162
								 -180 1 0 8.23 78.49 Z" class="st9"/>
				</g>
			</g>
			<g id="shape7-21" v:mID="7" v:groupContext="shape" transform="translate(54.7712,-38.7593) rotate(30)">
				<title>工作表.7</title>
				<g id="shadow7-22" v:groupContext="shadow" v:shadowOffsetX="3" v:shadowOffsetY="0" v:shadowType="1"
						v:shadowAngle="57" transform="matrix(1,0,0,1,2.59808,-1.5)" class="st1">
					<path d="M3.13 60.59 A10.3106 8.83089 0 0 1 1.81 77.7 A2.12598 2.12598 -180 0 0 -0 79.8 L0 80.26 A4.25197 4.25197
								 -180 0 0 5.29 84.39 A18.7182 16.0319 -180 0 0 2.36 53.1 A2.12598 2.12598 -180 0 0 0 55.22 L-0 56.49
								 A4.25197 4.25197 -180 0 0 3.13 60.59 Z" class="st6"/>
				</g>
				<path d="M3.13 60.59 A10.3106 8.83089 0 0 1 1.81 77.7 A2.12598 2.12598 -180 0 0 -0 79.8 L0 80.26 A4.25197 4.25197
							 -180 0 0 5.29 84.39 A18.7182 16.0319 -180 0 0 2.36 53.1 A2.12598 2.12598 -180 0 0 0 55.22 L-0 56.49
							 A4.25197 4.25197 -180 0 0 3.13 60.59 Z" class="st10"/>
			</g>
			<g id="shape12-26" v:mID="12" v:groupContext="shape" transform="translate(48.8288,-21.5076) rotate(10)">
				<title>工作表.12</title>
				<g id="shadow12-27" v:groupContext="shadow" v:shadowOffsetX="3" v:shadowOffsetY="0" v:shadowType="1"
						v:shadowAngle="57" transform="matrix(1,0,0,1,2.95442,-0.520945)" class="st1">
					<path d="M18.55 75.87 A8.7537 9.10615 0 1 1 22.53 59.37 L22.53 55.92 A7.08661 7.08661 -180 0 0 13.95 48.99 A17.5074
								 18.2123 -180 0 0 19.38 84.93 A3.54331 3.54331 -180 0 0 22.53 81.41 L22.53 79.38 A3.54331 3.54331
								 -180 0 0 18.55 75.87 Z" class="st6"/>
				</g>
				<path d="M18.55 75.87 A8.7537 9.10615 0 1 1 22.53 59.37 L22.53 55.92 A7.08661 7.08661 -180 0 0 13.95 48.99 A17.5074
							 18.2123 -180 0 0 19.38 84.93 A3.54331 3.54331 -180 0 0 22.53 81.41 L22.53 79.38 A3.54331 3.54331 -180
							 0 0 18.55 75.87 Z" class="st7"/>
			</g>
			<g id="group13-31" transform="translate(34.8153,-37.7376) rotate(-20)" v:mID="13" v:groupContext="group">
				<v:userDefs>
					<v:ud v:nameU="visVersion" v:prompt="" v:val="VT0(17):26"/>
				</v:userDefs>
				<title>齿轮.13</title>
				<g id="shape14-32" v:mID="14" v:groupContext="shape">
					<title>工作表.14</title>
					<g id="shadow14-33" v:groupContext="shadow" v:shadowOffsetX="3" v:shadowOffsetY="0" v:shadowType="1"
							v:shadowAngle="57" transform="matrix(1,0,0,1,2.81908,1.02606)" class="st1">
						<path d="M6.7 85.04 C6.33 85.04 5.97 85.04 5.6 85.04 C5.47 84.97 5.41 84.86 5.39 84.71 C5.32 84.26 5.24 83.8
									 5.17 83.34 C5.15 83.25 5.13 83.2 5.02 83.17 C4.63 83.08 4.26 82.92 3.91 82.71 C3.84 82.67 3.79
									 82.67 3.72 82.72 C3.33 83 2.94 83.28 2.55 83.56 C2.37 83.69 2.24 83.68 2.09 83.52 C1.9 83.34
									 1.72 83.15 1.53 82.97 C1.35 82.79 1.34 82.68 1.49 82.48 C1.77 82.09 2.04 81.7 2.32 81.32 C2.37
									 81.26 2.38 81.21 2.34 81.14 C2.12 80.78 1.96 80.4 1.86 79.99 C1.84 79.92 1.81 79.89 1.74 79.88
									 C1.28 79.81 0.83 79.73 0.37 79.66 C0.21 79.64 0.08 79.58 0 79.44 C0 79.07 0 78.7 0 78.34 C0.07
									 78.21 0.19 78.15 0.34 78.12 C0.79 78.06 1.24 77.97 1.7 77.91 C1.8 77.89 1.85 77.85 1.87 77.75
									 C1.97 77.36 2.12 76.99 2.33 76.65 C2.37 76.58 2.37 76.53 2.32 76.46 C2.04 76.07 1.76 75.68 1.48
									 75.28 C1.35 75.11 1.36 74.98 1.51 74.83 C1.7 74.64 1.89 74.45 2.09 74.26 C2.25 74.1 2.36 74.09
									 2.55 74.22 C2.94 74.5 3.34 74.78 3.73 75.07 C3.79 75.11 3.82 75.12 3.89 75.08 C4.25 74.86 4.64
									 74.7 5.05 74.6 C5.12 74.58 5.15 74.54 5.16 74.47 C5.23 74.02 5.31 73.57 5.38 73.11 C5.4 72.95
									 5.45 72.82 5.6 72.74 C5.97 72.74 6.33 72.74 6.7 72.74 C6.83 72.81 6.89 72.92 6.91 73.06 C6.98
									 73.52 7.06 73.98 7.13 74.44 C7.15 74.54 7.19 74.58 7.29 74.61 C7.68 74.71 8.05 74.87 8.4 75.07
									 C8.47 75.11 8.51 75.11 8.57 75.07 C8.96 74.78 9.36 74.5 9.75 74.22 C9.94 74.09 10.06 74.1 10.22
									 74.26 C10.4 74.44 10.58 74.62 10.77 74.81 C10.95 74.99 10.96 75.1 10.81 75.3 C10.53 75.69 10.25
									 76.08 9.97 76.47 C9.93 76.52 9.92 76.56 9.96 76.63 C10.18 76.99 10.34 77.38 10.44 77.79 C10.46
									 77.86 10.5 77.89 10.57 77.9 C11.02 77.97 11.47 78.05 11.93 78.12 C12.09 78.14 12.22 78.19 12.3
									 78.34 C12.3 78.7 12.3 79.06 12.3 79.42 C12.25 79.56 12.14 79.62 11.99 79.65 C11.52 79.72 11.05
									 79.8 10.58 79.88 C10.5 79.89 10.46 79.91 10.44 80 C10.34 80.41 10.18 80.79 9.96 81.15 C9.92
									 81.21 9.93 81.25 9.97 81.3 C10.26 81.7 10.55 82.1 10.83 82.5 C10.95 82.67 10.94 82.8 10.79 82.94
									 C10.6 83.14 10.41 83.33 10.22 83.52 C10.06 83.68 9.94 83.69 9.75 83.56 C9.36 83.28 8.96 83 8.57
									 82.71 C8.51 82.67 8.47 82.66 8.4 82.7 C8.05 82.92 7.66 83.08 7.26 83.18 C7.18 83.2 7.15 83.23
									 7.14 83.3 C7.07 83.76 6.99 84.22 6.92 84.68 C6.9 84.83 6.84 84.96 6.7 85.04 ZM7.73 78.89 A1.58006
									 1.5801 -180 1 0 4.57 78.89 A1.58006 1.5801 -180 1 0 7.73 78.89 Z" class="st8"/>
					</g>
					<path d="M6.7 85.04 C6.33 85.04 5.97 85.04 5.6 85.04 C5.47 84.97 5.41 84.86 5.39 84.71 C5.32 84.26 5.24 83.8
								 5.17 83.34 C5.15 83.25 5.13 83.2 5.02 83.17 C4.63 83.08 4.26 82.92 3.91 82.71 C3.84 82.67 3.79 82.67
								 3.72 82.72 C3.33 83 2.94 83.28 2.55 83.56 C2.37 83.69 2.24 83.68 2.09 83.52 C1.9 83.34 1.72 83.15
								 1.53 82.97 C1.35 82.79 1.34 82.68 1.49 82.48 C1.77 82.09 2.04 81.7 2.32 81.32 C2.37 81.26 2.38 81.21
								 2.34 81.14 C2.12 80.78 1.96 80.4 1.86 79.99 C1.84 79.92 1.81 79.89 1.74 79.88 C1.28 79.81 0.83 79.73
								 0.37 79.66 C0.21 79.64 0.08 79.58 0 79.44 C0 79.07 0 78.7 0 78.34 C0.07 78.21 0.19 78.15 0.34 78.12
								 C0.79 78.06 1.24 77.97 1.7 77.91 C1.8 77.89 1.85 77.85 1.87 77.75 C1.97 77.36 2.12 76.99 2.33 76.65
								 C2.37 76.58 2.37 76.53 2.32 76.46 C2.04 76.07 1.76 75.68 1.48 75.28 C1.35 75.11 1.36 74.98 1.51
								 74.83 C1.7 74.64 1.89 74.45 2.09 74.26 C2.25 74.1 2.36 74.09 2.55 74.22 C2.94 74.5 3.34 74.78 3.73
								 75.07 C3.79 75.11 3.82 75.12 3.89 75.08 C4.25 74.86 4.64 74.7 5.05 74.6 C5.12 74.58 5.15 74.54 5.16
								 74.47 C5.23 74.02 5.31 73.57 5.38 73.11 C5.4 72.95 5.45 72.82 5.6 72.74 C5.97 72.74 6.33 72.74 6.7
								 72.74 C6.83 72.81 6.89 72.92 6.91 73.06 C6.98 73.52 7.06 73.98 7.13 74.44 C7.15 74.54 7.19 74.58
								 7.29 74.61 C7.68 74.71 8.05 74.87 8.4 75.07 C8.47 75.11 8.51 75.11 8.57 75.07 C8.96 74.78 9.36 74.5
								 9.75 74.22 C9.94 74.09 10.06 74.1 10.22 74.26 C10.4 74.44 10.58 74.62 10.77 74.81 C10.95 74.99 10.96
								 75.1 10.81 75.3 C10.53 75.69 10.25 76.08 9.97 76.47 C9.93 76.52 9.92 76.56 9.96 76.63 C10.18 76.99
								 10.34 77.38 10.44 77.79 C10.46 77.86 10.5 77.89 10.57 77.9 C11.02 77.97 11.47 78.05 11.93 78.12
								 C12.09 78.14 12.22 78.19 12.3 78.34 C12.3 78.7 12.3 79.06 12.3 79.42 C12.25 79.56 12.14 79.62 11.99
								 79.65 C11.52 79.72 11.05 79.8 10.58 79.88 C10.5 79.89 10.46 79.91 10.44 80 C10.34 80.41 10.18 80.79
								 9.96 81.15 C9.92 81.21 9.93 81.25 9.97 81.3 C10.26 81.7 10.55 82.1 10.83 82.5 C10.95 82.67 10.94
								 82.8 10.79 82.94 C10.6 83.14 10.41 83.33 10.22 83.52 C10.06 83.68 9.94 83.69 9.75 83.56 C9.36 83.28
								 8.96 83 8.57 82.71 C8.51 82.67 8.47 82.66 8.4 82.7 C8.05 82.92 7.66 83.08 7.26 83.18 C7.18 83.2
								 7.15 83.23 7.14 83.3 C7.07 83.76 6.99 84.22 6.92 84.68 C6.9 84.83 6.84 84.96 6.7 85.04 ZM7.73 78.89
								 A1.58006 1.5801 -180 1 0 4.57 78.89 A1.58006 1.5801 -180 1 0 7.73 78.89 Z" class="st9"/>
				</g>
			</g>
			<g id="shape18-37" v:mID="18" v:groupContext="shape" transform="translate(74.3479,-18.6167) rotate(10)">
				<title>工作表.18</title>
				<g id="shadow18-38" v:groupContext="shadow" v:shadowOffsetX="3" v:shadowOffsetY="0" v:shadowType="1"
						v:shadowAngle="57" transform="matrix(1,0,0,1,2.95442,-0.520945)" class="st1">
					<path d="M7.59 72.37 L7.59 63.21 A3.79586 3.79586 -180 0 0 3.8 59.41 L3.8 59.41 A3.79586 3.79586 -180 0 0 0 63.21
								 L0 75.85 L0 81.24 A3.79586 3.79586 -180 0 0 3.8 85.04 L7.59 85.04 L9.97 85.04 A4.59264 4.59264 -180
								 0 0 14.56 80.45 L14.56 79.34 A3.48398 3.48398 -180 0 0 11.08 75.85 L11.08 75.85 A3.48398 3.48398
								 0 0 1 7.59 72.37 Z" class="st6"/>
				</g>
				<path d="M7.59 72.37 L7.59 63.21 A3.79586 3.79586 -180 0 0 3.8 59.41 L3.8 59.41 A3.79586 3.79586 -180 0 0 0 63.21
							 L0 75.85 L0 81.24 A3.79586 3.79586 -180 0 0 3.8 85.04 L7.59 85.04 L9.97 85.04 A4.59264 4.59264 -180
							 0 0 14.56 80.45 L14.56 79.34 A3.48398 3.48398 -180 0 0 11.08 75.85 L11.08 75.85 A3.48398 3.48398 0 0
							 1 7.59 72.37 Z" class="st10"/>
			</g>
			<g id="shape59-42" v:mID="59" v:groupContext="shape" transform="translate(98.7204,-61.6258) rotate(-9.03299)">
				<title>工作表.59</title>
				<path d="M0 85.04 L67.71 85.04" class="st11"/>
			</g>
			<g id="shape61-48" v:mID="61" v:groupContext="shape" transform="translate(80.4315,-43.4482) rotate(-10.8383)">
				<title>工作表.61</title>
				<path d="M0 85.04 L92.98 85.04" class="st11"/>
			</g>
			<g id="shape62-53" v:mID="62" v:groupContext="shape" transform="translate(103.714,-35.1461) rotate(-10.4146)">
				<title>工作表.62</title>
				<path d="M0 85.04 L72.43 85.04" class="st11"/>
			</g>
			<g id="shape63-58" v:mID="63" v:groupContext="shape" transform="translate(137.999,-30.8751) rotate(-9.03299)">
				<title>工作表.63</title>
				<path d="M0 85.04 L44.44 85.04" class="st11"/>
			</g>
			<g id="shape33-63" v:mID="33" v:groupContext="shape" transform="translate(142.86,-20.6121)">
				<title>环形</title>
				<v:userDefs>
					<v:ud v:nameU="visVersion" v:prompt="" v:val="VT0(15):26"/>
				</v:userDefs>
				<g id="shadow33-64" v:groupContext="shadow" v:shadowOffsetX="0" v:shadowOffsetY="0" v:shadowType="2"
						v:shadowScale="0.42" v:shadowAngle="57" transform="matrix(1,0,-0.352242,0.228748,29.9544,65.5868)"
						class="st1">
					<path d="M40.77 66.83 A20.3862 18.2123 -180 1 0 -0 66.83 A20.3862 18.2123 -180 1 0 40.77 66.83 ZM9.51 66.83 A10.8726
								 9.71323 0 1 0 31.26 66.83 A10.8726 9.71323 0 1 0 9.51 66.83 Z" class="st12"/>
				</g>
				<path d="M40.77 66.83 A20.3862 18.2123 -180 1 0 -0 66.83 A20.3862 18.2123 -180 1 0 40.77 66.83 ZM9.51 66.83 A10.8726
							 9.71323 0 1 0 31.26 66.83 A10.8726 9.71323 0 1 0 9.51 66.83 Z" class="st13"/>
			</g>
			<g id="shape51-68" v:mID="51" v:groupContext="shape" transform="translate(78.9383,-20.6121)">
				<title>工作表.51</title>
				<g id="shadow51-69" v:groupContext="shadow" v:shadowOffsetX="0" v:shadowOffsetY="0" v:shadowType="2"
						v:shadowScale="0.42" v:shadowAngle="57" transform="matrix(1,0,-0.352242,0.228748,29.9544,65.5868)"
						class="st1">
					<path d="M54.94 33.82 A7.41032 8.09436 -180 0 0 49.49 37.9 L35.53 65.35 L32.7 38.88 A5.32563 5.81723 -180 0 0
								 32.1 36.8 A3.26937 3.57117 -180 0 0 28.86 33.74 L27.66 33.74 A7.41032 8.09436 -180 0 0 27.52 33.74
								 A5.32563 5.81723 -180 0 0 27.41 33.74 A4.21749 4.6068 -180 0 0 26.63 33.82 A7.41032 8.09436 -180
								 0 0 21.18 37.9 L0.5 78.55 A3.97444 4.34132 -180 0 0 3.97 85 A7.41032 8.09436 -180 0 0 10.45 80.84
								 L24.71 52.82 L27.61 79.9 A5.32563 5.81723 -180 0 0 29.23 83.44 A3.97444 4.34132 -180 0 0 32.28 85
								 L32.3 85 A5.32563 5.81723 -180 0 0 32.9 85.04 A4.21749 4.6068 -180 0 0 34.93 84.47 A7.41032 8.09436
								 -180 0 0 38.76 80.84 L53.02 52.82 L55.91 79.9 A5.32563 5.81723 -180 0 0 61.2 85.04 A4.21749 4.6068
								 -180 0 0 65.39 79.9 L61 38.88 A5.32563 5.81723 -180 0 0 60.4 36.8 A3.26937 3.57117 -180 0 0 57.17
								 33.74 L55.97 33.74 A7.41032 8.09436 -180 0 0 55.83 33.74 A5.32563 5.81723 -180 0 0 55.71 33.74 A4.21749
								 4.6068 -180 0 0 54.94 33.82 Z" class="st14"/>
				</g>
				<path d="M54.94 33.82 A7.41032 8.09436 -180 0 0 49.49 37.9 L35.53 65.35 L32.7 38.88 A5.32563 5.81723 -180 0 0 32.1
							 36.8 A3.26937 3.57117 -180 0 0 28.86 33.74 L27.66 33.74 A7.41032 8.09436 -180 0 0 27.52 33.74 A5.32563
							 5.81723 -180 0 0 27.41 33.74 A4.21749 4.6068 -180 0 0 26.63 33.82 A7.41032 8.09436 -180 0 0 21.18 37.9
							 L0.5 78.55 A3.97444 4.34132 -180 0 0 3.97 85 A7.41032 8.09436 -180 0 0 10.45 80.84 L24.71 52.82 L27.61
							 79.9 A5.32563 5.81723 -180 0 0 29.23 83.44 A3.97444 4.34132 -180 0 0 32.28 85 L32.3 85 A5.32563 5.81723
							 -180 0 0 32.9 85.04 A4.21749 4.6068 -180 0 0 34.93 84.47 A7.41032 8.09436 -180 0 0 38.76 80.84 L53.02
							 52.82 L55.91 79.9 A5.32563 5.81723 -180 0 0 61.2 85.04 A4.21749 4.6068 -180 0 0 65.39 79.9 L61 38.88
							 A5.32563 5.81723 -180 0 0 60.4 36.8 A3.26937 3.57117 -180 0 0 57.17 33.74 L55.97 33.74 A7.41032 8.09436
							 -180 0 0 55.83 33.74 A5.32563 5.81723 -180 0 0 55.71 33.74 A4.21749 4.6068 -180 0 0 54.94 33.82 Z"
						class="st15"/>
			</g>
			<g id="shape70-73" v:mID="70" v:groupContext="shape" transform="translate(261.746,104.527) rotate(-165)">
				<title>椭圆形.67</title>
				<v:userDefs>
					<v:ud v:nameU="visVersion" v:val="VT0(15):26"/>
				</v:userDefs>
				<g id="shadow70-74" v:groupContext="shadow" v:shadowOffsetX="3" v:shadowOffsetY="0" v:shadowType="1"
						transform="matrix(1,0,0,1,-2.89778,0.776457)" class="st1">
					<path d="M0 80.57 A1.4955 4.46843 0 1 1 2.99 80.57 A1.4955 4.46843 0 1 1 0 80.57 Z" class="st8"/>
				</g>
				<path d="M0 80.57 A1.4955 4.46843 0 1 1 2.99 80.57 A1.4955 4.46843 0 1 1 0 80.57 Z" class="st16"/>
			</g>
			<g id="shape72-78" v:mID="72" v:groupContext="shape" transform="translate(143.156,80.3226) rotate(-135)">
				<title>椭圆形.72</title>
				<v:userDefs>
					<v:ud v:nameU="visVersion" v:val="VT0(15):26"/>
				</v:userDefs>
				<g id="shadow72-79" v:groupContext="shadow" v:shadowOffsetX="3" v:shadowOffsetY="0" v:shadowType="1"
						transform="matrix(1,0,0,1,-2.12132,2.12132)" class="st1">
					<path d="M0 79.33 A1.98132 5.70849 0 1 1 3.96 79.33 A1.98132 5.70849 0 1 1 -0 79.33 Z" class="st8"/>
				</g>
				<path d="M0 79.33 A1.98132 5.70849 0 1 1 3.96 79.33 A1.98132 5.70849 0 1 1 -0 79.33 Z" class="st16"/>
			</g>
			<g id="shape73-83" v:mID="73" v:groupContext="shape" transform="translate(194.686,130.482) rotate(-165)">
				<title>椭圆形.73</title>
				<v:userDefs>
					<v:ud v:nameU="visVersion" v:val="VT0(15):26"/>
				</v:userDefs>
				<g id="shadow73-84" v:groupContext="shadow" v:shadowOffsetX="3" v:shadowOffsetY="0" v:shadowType="1"
						transform="matrix(1,0,0,1,-2.89778,0.776457)" class="st1">
					<path d="M0 81.93 A1.73303 3.10821 0 0 1 3.47 81.93 A1.73303 3.10821 0 1 1 0 81.93 Z" class="st8"/>
				</g>
				<path d="M0 81.93 A1.73303 3.10821 0 0 1 3.47 81.93 A1.73303 3.10821 0 1 1 0 81.93 Z" class="st16"/>
			</g>
			<g id="shape74-88" v:mID="74" v:groupContext="shape" transform="translate(310.65,133.896) rotate(180)">
				<title>椭圆形.74</title>
				<v:userDefs>
					<v:ud v:nameU="visVersion" v:val="VT0(15):26"/>
				</v:userDefs>
				<g id="shadow74-89" v:groupContext="shadow" v:shadowOffsetX="3" v:shadowOffsetY="0" v:shadowType="1"
						transform="matrix(1,0,0,1,-3,-2.84217E-14)" class="st1">
					<path d="M0 80.57 A1.27484 4.46843 0 0 1 2.55 80.57 A1.27484 4.46843 0 0 1 0 80.57 Z" class="st8"/>
				</g>
				<path d="M0 80.57 A1.27484 4.46843 0 0 1 2.55 80.57 A1.27484 4.46843 0 0 1 0 80.57 Z" class="st16"/>
			</g>
			<g id="shape76-93" v:mID="76" v:groupContext="shape" transform="translate(136.174,27.1701) rotate(-83)">
				<title>椭圆形.76</title>
				<v:userDefs>
					<v:ud v:nameU="visVersion" v:val="VT0(15):26"/>
				</v:userDefs>
				<g id="shadow76-94" v:groupContext="shadow" v:shadowOffsetX="3" v:shadowOffsetY="0" v:shadowType="1"
						transform="matrix(1,0,0,1,0.365608,2.97764)" class="st1">
					<path d="M0 77 a0.867069 8.03899 0 1 1 1.73414 -1.13687E-13 a0.867069 8.03899 0 1 1 -1.73414 1.42109E-14 Z"
							class="st8"/>
				</g>
				<path d="M0 77 a0.867069 8.03899 0 1 1 1.73414 -1.13687E-13 a0.867069 8.03899 0 1 1 -1.73414 1.42109E-14 Z"
						class="st16"/>
			</g>
			<g id="shape77-98" v:mID="77" v:groupContext="shape" transform="translate(238.912,-6.04225) rotate(10)">
				<title>椭圆形.77</title>
				<v:userDefs>
					<v:ud v:nameU="visVersion" v:val="VT0(15):26"/>
				</v:userDefs>
				<g id="shadow77-99" v:groupContext="shadow" v:shadowOffsetX="3" v:shadowOffsetY="0" v:shadowType="1"
						transform="matrix(1,0,0,1,2.95442,-0.520945)" class="st1">
					<path d="M0 77 a0.958973 8.03899 0 1 1 1.91795 -1.13687E-13 a0.958973 8.03899 0 1 1 -1.91795 0 Z" class="st8"/>
				</g>
				<path d="M0 77 a0.958973 8.03899 0 1 1 1.91795 -1.13687E-13 a0.958973 8.03899 0 1 1 -1.91795 0 Z" class="st16"/>
			</g>
			<g id="shape78-103" v:mID="78" v:groupContext="shape" transform="translate(302.512,124.128) rotate(-165)">
				<title>椭圆形.78</title>
				<v:userDefs>
					<v:ud v:nameU="visVersion" v:val="VT0(15):26"/>
				</v:userDefs>
				<g id="shadow78-104" v:groupContext="shadow" v:shadowOffsetX="3" v:shadowOffsetY="0" v:shadowType="1"
						transform="matrix(1,0,0,1,-2.89778,0.776457)" class="st1">
					<path d="M0 80.57 a0.943508 4.46843 0 1 1 1.88702 -7.10543E-14 a0.943508 4.46843 0 1 1 -1.88702 0 Z"
							class="st8"/>
				</g>
				<path d="M0 80.57 a0.943508 4.46843 0 1 1 1.88702 -7.10543E-14 a0.943508 4.46843 0 1 1 -1.88702 0 Z" class="st16"/>
			</g>
			<g id="shape79-108" v:mID="79" v:groupContext="shape" transform="translate(347.952,135.643) rotate(180)">
				<title>椭圆形.79</title>
				<v:userDefs>
					<v:ud v:nameU="visVersion" v:val="VT0(15):26"/>
				</v:userDefs>
				<g id="shadow79-109" v:groupContext="shadow" v:shadowOffsetX="3" v:shadowOffsetY="0" v:shadowType="1"
						transform="matrix(1,0,0,1,-3,2.84217E-14)" class="st1">
					<path d="M0 81.17 A3.71942 3.86955 0 1 1 7.44 81.17 A3.71942 3.86955 0 0 1 0 81.17 Z" class="st8"/>
				</g>
				<path d="M0 81.17 A3.71942 3.86955 0 1 1 7.44 81.17 A3.71942 3.86955 0 0 1 0 81.17 Z" class="st16"/>
			</g>
			<g id="shape80-113" v:mID="80" v:groupContext="shape" transform="translate(187.113,-31.6876) rotate(-40)">
				<title>椭圆形.80</title>
				<v:userDefs>
					<v:ud v:nameU="visVersion" v:val="VT0(15):26"/>
				</v:userDefs>
				<g id="shadow80-114" v:groupContext="shadow" v:shadowOffsetX="3" v:shadowOffsetY="0" v:shadowType="1"
						transform="matrix(1,-5.55112E-17,5.55112E-17,1,2.29813,1.92836)" class="st1">
					<path d="M0 82 A1.5191 3.04112 0 0 1 3.04 82 A1.5191 3.04112 0 0 1 0 82 Z" class="st8"/>
				</g>
				<path d="M0 82 A1.5191 3.04112 0 0 1 3.04 82 A1.5191 3.04112 0 0 1 0 82 Z" class="st16"/>
			</g>
			<g id="shape81-118" v:mID="81" v:groupContext="shape" transform="translate(269.986,129.74) rotate(-165)">
				<title>椭圆形.81</title>
				<v:userDefs>
					<v:ud v:nameU="visVersion" v:val="VT0(15):26"/>
				</v:userDefs>
				<g id="shadow81-119" v:groupContext="shadow" v:shadowOffsetX="3" v:shadowOffsetY="0" v:shadowType="1"
						transform="matrix(1,0,0,1,-2.89778,0.776457)" class="st1">
					<path d="M0 80.57 A1.19427 4.46843 0 0 1 2.39 80.57 A1.19427 4.46843 0 1 1 0 80.57 Z" class="st8"/>
				</g>
				<path d="M0 80.57 A1.19427 4.46843 0 0 1 2.39 80.57 A1.19427 4.46843 0 1 1 0 80.57 Z" class="st16"/>
			</g>
			<g id="shape82-123" v:mID="82" v:groupContext="shape" transform="translate(370.285,124.408) rotate(135)">
				<title>椭圆形.82</title>
				<v:userDefs>
					<v:ud v:nameU="visVersion" v:val="VT0(15):26"/>
				</v:userDefs>
				<g id="shadow82-124" v:groupContext="shadow" v:shadowOffsetX="3" v:shadowOffsetY="0" v:shadowType="1"
						transform="matrix(1,0,0,1,-2.12132,-2.12132)" class="st1">
					<path d="M0 81.8 A3.79095 3.24058 0 0 1 7.58 81.8 A3.79095 3.24058 0 0 1 0 81.8 Z" class="st8"/>
				</g>
				<path d="M0 81.8 A3.79095 3.24058 0 0 1 7.58 81.8 A3.79095 3.24058 0 0 1 0 81.8 Z" class="st16"/>
			</g>
		</g>
	</g>
</svg>
