<?xml version="1.0" encoding="UTF-8" standalone="no"?>
<!DOCTYPE svg PUBLIC "-//W3C//DTD SVG 1.1//EN" "http://www.w3.org/Graphics/SVG/1.1/DTD/svg11.dtd">
<!-- 由 Microsoft Visio, SVG Export 生成 logo.svg Page-1 -->
<svg xmlns="http://www.w3.org/2000/svg" xmlns:xlink="http://www.w3.org/1999/xlink" xmlns:ev="http://www.w3.org/2001/xml-events"
		xmlns:v="http://schemas.microsoft.com/visio/2003/SVGExtensions/" width="4.92126in" height="1.10236in"
		viewBox="0 0 354.331 79.3701" xml:space="preserve" color-interpolation-filters="sRGB" class="st17">
	<v:documentProperties v:langID="2052" v:metric="true" v:viewMarkup="false">
		<v:userDefs>
			<v:ud v:nameU="msvSubprocessMaster" v:prompt="" v:val="VT4(Rectangle)"/>
			<v:ud v:nameU="msvNoAutoConnect" v:val="VT0(1):26"/>
		</v:userDefs>
	</v:documentProperties>

	<style type="text/css">
	<![CDATA[
		.st1 {visibility:visible}
		.st2 {fill:none;filter:url(#filter_2.6666667461395);stroke:none}
		.st3 {fill:#000000;filter:url(#filter_2.6666667461395);font-family:Comic Sans MS;font-size:4.99999em;font-style:italic;font-weight:bold;opacity:0.4}
		.st4 {fill:none;stroke:none;stroke-width:0.25}
		.st5 {fill:#4672c4;font-family:Comic Sans MS;font-size:4.99999em;font-style:italic;font-weight:bold}
		.st6 {fill:#000000;fill-opacity:0.4;filter:url(#filter_2.6666667461395);stroke:none;stroke-linecap:round;stroke-linejoin:round}
		.st7 {fill:#c55a11;stroke:none;stroke-linecap:round;stroke-linejoin:round;stroke-width:0.25}
		.st8 {fill:#000000;fill-opacity:0.4;filter:url(#filter_2.6666667461395);stroke:none}
		.st9 {fill:#833c0b;stroke:none;stroke-width:0.25}
		.st10 {fill:#bd701a;stroke:none;stroke-linecap:round;stroke-linejoin:round;stroke-width:0.25}
		.st11 {stroke:url(#grad0-51);stroke-linecap:round;stroke-linejoin:round;stroke-width:3}
		.st12 {fill:#2b862b;fill-opacity:0.4;filter:url(#filter_2.6666667461395);stroke:none}
		.st13 {fill:#2b862b;stroke:none;stroke-width:0.25}
		.st14 {fill:#2b862b;fill-opacity:0.4;filter:url(#filter_2.6666667461395);stroke:none;stroke-linecap:round;stroke-linejoin:round}
		.st15 {fill:#2b862b;stroke:none;stroke-linecap:round;stroke-linejoin:round;stroke-width:0.25}
		.st16 {fill:#4672c4;stroke:none;stroke-width:0.25}
		.st17 {fill:none;fill-rule:evenodd;font-size:12px;overflow:visible;stroke-linecap:square;stroke-miterlimit:3}
	]]>
	</style>

	<defs id="Patterns_And_Gradients">
		<linearGradient id="grad0-51" x1="0" y1="0" x2="1" y2="0" gradientTransform="rotate(0 0.5 0.5)">
			<stop offset="0" stop-color="#2b862b" stop-opacity="1"/>
			<stop offset="1" stop-color="#2b862b" stop-opacity="0"/>
		</linearGradient>
	</defs>
	<defs id="Filters">
		<filter id="filter_2.6666667461395">
			<feGaussianBlur stdDeviation="2.6666667461395"/>
		</filter>
	</defs>
	<g v:mID="0" v:index="1" v:groupContext="foregroundPage">
		<v:userDefs>
			<v:ud v:nameU="msvThemeOrder" v:val="VT0(0):26"/>
		</v:userDefs>
		<title>页-1</title>
		<v:pageProperties v:drawingScale="0.0393701" v:pageScale="0.0393701" v:drawingUnits="24" v:shadowOffsetX="8.50394"
				v:shadowOffsetY="-8.50394"/>
		<g id="shape85-1" v:mID="85" v:groupContext="shape" transform="translate(234.99,-8.09974)">
			<title>工作表.85</title>
			<desc>p</desc>
			<v:textBlock v:margins="rect(4,4,4,4)" v:tabSpace="42.5197"/>
			<v:textRect cx="18.6613" cy="51.5014" width="37.33" height="55.7375"/>
			<g id="shadow85-2" v:groupContext="shadow" v:shadowOffsetX="3" v:shadowOffsetY="0" v:shadowType="1"
					transform="matrix(1,0,0,1,3,0)" class="st1">
				<rect x="0" y="23.6326" width="37.3225" height="55.7375" class="st2"/>
				<text x="4" y="69.5" class="st3" v:langID="2052"><v:paragraph v:horizAlign="1"/><v:tabList/>p</text>			</g>
			<rect x="0" y="23.6326" width="37.3225" height="55.7375" class="st4"/>
			<text x="4" y="69.5" class="st5" v:langID="2052"><v:paragraph v:horizAlign="1"/><v:tabList/>p</text>		</g>
		<g id="shape30-9" v:mID="30" v:groupContext="shape" transform="translate(183.73,-3.50162)">
			<title>工作表.30</title>
			<desc>S lat</desc>
			<v:textBlock v:margins="rect(4,4,4,4)" v:tabSpace="42.5197"/>
			<v:textRect cx="86.9288" cy="59.4781" width="173.86" height="39.784"/>
			<g id="shadow30-10" v:groupContext="shadow" v:shadowOffsetX="2.12132" v:shadowOffsetY="2.12132" v:shadowType="1"
					transform="matrix(1,0,0,1,2.12132,-2.12132)" class="st1">
				<rect x="0" y="39.5861" width="173.858" height="39.784" class="st2"/>
				<text x="14.1" y="74.48" class="st3" v:langID="2052"><v:paragraph v:spLine="-1" v:horizAlign="1"/><v:tabList/>S lat</text>			</g>
			<rect x="0" y="39.5861" width="173.858" height="39.784" class="st4"/>
			<text x="14.1" y="74.48" class="st5" v:langID="2052"><v:paragraph v:spLine="-1" v:horizAlign="1"/><v:tabList/>S lat</text>		</g>
		<g id="shape1-17" v:mID="1" v:groupContext="shape" transform="translate(14.9063,-4.94947) rotate(6)">
			<title>矩形</title>
			<v:userDefs>
				<v:ud v:nameU="visVersion" v:val="VT0(15):26"/>
			</v:userDefs>
			<g id="shadow1-18" v:groupContext="shadow" v:shadowOffsetX="3" v:shadowOffsetY="0" v:shadowType="1" v:shadowAngle="57"
					transform="matrix(1,0,0,1,2.98357,-0.313585)" class="st1">
				<rect x="0" y="17.3673" width="8.62049" height="62.0028" rx="4.31025" ry="4.31025" class="st6"/>
			</g>
			<rect x="0" y="17.3673" width="8.62049" height="62.0028" rx="4.31025" ry="4.31025" class="st7"/>
		</g>
		<g id="group3-22" transform="translate(33.9426,-57.0253) rotate(10)" v:mID="3" v:groupContext="group">
			<v:userDefs>
				<v:ud v:nameU="visVersion" v:prompt="" v:val="VT0(17):26"/>
			</v:userDefs>
			<title>齿轮</title>
			<g id="shape4-23" v:mID="4" v:groupContext="shape">
				<title>工作表.4</title>
				<g id="shadow4-24" v:groupContext="shadow" v:shadowOffsetX="3" v:shadowOffsetY="0" v:shadowType="1"
						v:shadowAngle="57" transform="matrix(1,0,0,1,2.95442,-0.520945)" class="st1">
					<path d="M7.13 79.37 C6.74 79.37 6.35 79.37 5.96 79.37 C5.82 79.29 5.76 79.18 5.74 79.02 C5.66 78.54 5.58 78.05
								 5.5 77.56 C5.48 77.46 5.46 77.41 5.35 77.38 C4.93 77.28 4.53 77.11 4.16 76.89 C4.08 76.84 4.03 76.84
								 3.96 76.9 C3.55 77.2 3.13 77.5 2.72 77.79 C2.52 77.93 2.39 77.92 2.22 77.76 C2.02 77.56 1.83 77.36
								 1.63 77.17 C1.44 76.98 1.43 76.86 1.59 76.64 C1.88 76.23 2.18 75.82 2.47 75.41 C2.52 75.35 2.53
								 75.3 2.49 75.22 C2.25 74.84 2.09 74.43 1.98 74 C1.96 73.92 1.92 73.89 1.85 73.88 C1.36 73.8 0.88
								 73.72 0.4 73.65 C0.23 73.62 0.09 73.56 0 73.41 C0 73.02 0 72.63 0 72.24 C0.08 72.1 0.2 72.03 0.36
								 72.01 C0.84 71.94 1.32 71.85 1.81 71.78 C1.92 71.76 1.96 71.72 1.99 71.61 C2.09 71.2 2.26 70.81
								 2.48 70.44 C2.53 70.36 2.53 70.31 2.47 70.24 C2.17 69.82 1.87 69.4 1.57 68.99 C1.44 68.8 1.45 68.67
								 1.61 68.51 C1.81 68.3 2.01 68.1 2.22 67.89 C2.39 67.72 2.52 67.71 2.72 67.86 C3.13 68.16 3.55 68.46
								 3.97 68.76 C4.03 68.8 4.07 68.81 4.14 68.77 C4.52 68.54 4.93 68.37 5.37 68.26 C5.45 68.24 5.48 68.2
								 5.49 68.13 C5.57 67.64 5.65 67.16 5.73 66.68 C5.75 66.51 5.8 66.37 5.96 66.28 C6.35 66.28 6.74 66.28
								 7.13 66.28 C7.27 66.35 7.33 66.47 7.36 66.62 C7.43 67.11 7.52 67.6 7.59 68.09 C7.61 68.19 7.65 68.24
								 7.76 68.27 C8.18 68.37 8.57 68.54 8.94 68.77 C9.01 68.81 9.06 68.81 9.12 68.76 C9.54 68.45 9.96
								 68.16 10.38 67.86 C10.57 67.71 10.7 67.72 10.87 67.89 C11.07 68.09 11.26 68.28 11.46 68.48 C11.65
								 68.67 11.66 68.79 11.51 69 C11.21 69.42 10.91 69.84 10.61 70.25 C10.57 70.31 10.56 70.35 10.6 70.42
								 C10.83 70.8 11 71.21 11.11 71.65 C11.13 71.73 11.17 71.76 11.25 71.77 C11.73 71.85 12.21 71.93 12.69
								 72 C12.86 72.03 13 72.08 13.09 72.24 C13.09 72.62 13.09 73 13.09 73.39 C13.03 73.54 12.92 73.61
								 12.76 73.63 C12.26 73.71 11.76 73.79 11.26 73.87 C11.18 73.89 11.13 73.91 11.11 74.01 C11 74.44
								 10.83 74.85 10.6 75.23 C10.56 75.29 10.57 75.34 10.61 75.4 C10.92 75.82 11.22 76.25 11.53 76.67
								 C11.65 76.85 11.64 76.99 11.49 77.14 C11.28 77.34 11.08 77.55 10.87 77.75 C10.7 77.93 10.58 77.94
								 10.38 77.79 C9.96 77.49 9.54 77.2 9.12 76.89 C9.06 76.85 9.01 76.84 8.94 76.88 C8.56 77.11 8.15
								 77.28 7.72 77.39 C7.64 77.41 7.61 77.45 7.6 77.52 C7.52 78.01 7.44 78.5 7.36 78.98 C7.34 79.15 7.28
								 79.28 7.13 79.37 ZM8.23 72.82 A1.68158 1.68162 -180 1 0 4.86 72.82 A1.68158 1.68162 -180 1 0 8.23
								 72.82 Z" class="st8"/>
				</g>
				<path d="M7.13 79.37 C6.74 79.37 6.35 79.37 5.96 79.37 C5.82 79.29 5.76 79.18 5.74 79.02 C5.66 78.54 5.58 78.05 5.5
							 77.56 C5.48 77.46 5.46 77.41 5.35 77.38 C4.93 77.28 4.53 77.11 4.16 76.89 C4.08 76.84 4.03 76.84 3.96
							 76.9 C3.55 77.2 3.13 77.5 2.72 77.79 C2.52 77.93 2.39 77.92 2.22 77.76 C2.02 77.56 1.83 77.36 1.63 77.17
							 C1.44 76.98 1.43 76.86 1.59 76.64 C1.88 76.23 2.18 75.82 2.47 75.41 C2.52 75.35 2.53 75.3 2.49 75.22
							 C2.25 74.84 2.09 74.43 1.98 74 C1.96 73.92 1.92 73.89 1.85 73.88 C1.36 73.8 0.88 73.72 0.4 73.65 C0.23
							 73.62 0.09 73.56 0 73.41 C0 73.02 0 72.63 0 72.24 C0.08 72.1 0.2 72.03 0.36 72.01 C0.84 71.94 1.32 71.85
							 1.81 71.78 C1.92 71.76 1.96 71.72 1.99 71.61 C2.09 71.2 2.26 70.81 2.48 70.44 C2.53 70.36 2.53 70.31
							 2.47 70.24 C2.17 69.82 1.87 69.4 1.57 68.99 C1.44 68.8 1.45 68.67 1.61 68.51 C1.81 68.3 2.01 68.1 2.22
							 67.89 C2.39 67.72 2.52 67.71 2.72 67.86 C3.13 68.16 3.55 68.46 3.97 68.76 C4.03 68.8 4.07 68.81 4.14
							 68.77 C4.52 68.54 4.93 68.37 5.37 68.26 C5.45 68.24 5.48 68.2 5.49 68.13 C5.57 67.64 5.65 67.16 5.73
							 66.68 C5.75 66.51 5.8 66.37 5.96 66.28 C6.35 66.28 6.74 66.28 7.13 66.28 C7.27 66.35 7.33 66.47 7.36
							 66.62 C7.43 67.11 7.52 67.6 7.59 68.09 C7.61 68.19 7.65 68.24 7.76 68.27 C8.18 68.37 8.57 68.54 8.94
							 68.77 C9.01 68.81 9.06 68.81 9.12 68.76 C9.54 68.45 9.96 68.16 10.38 67.86 C10.57 67.71 10.7 67.72 10.87
							 67.89 C11.07 68.09 11.26 68.28 11.46 68.48 C11.65 68.67 11.66 68.79 11.51 69 C11.21 69.42 10.91 69.84
							 10.61 70.25 C10.57 70.31 10.56 70.35 10.6 70.42 C10.83 70.8 11 71.21 11.11 71.65 C11.13 71.73 11.17
							 71.76 11.25 71.77 C11.73 71.85 12.21 71.93 12.69 72 C12.86 72.03 13 72.08 13.09 72.24 C13.09 72.62 13.09
							 73 13.09 73.39 C13.03 73.54 12.92 73.61 12.76 73.63 C12.26 73.71 11.76 73.79 11.26 73.87 C11.18 73.89
							 11.13 73.91 11.11 74.01 C11 74.44 10.83 74.85 10.6 75.23 C10.56 75.29 10.57 75.34 10.61 75.4 C10.92
							 75.82 11.22 76.25 11.53 76.67 C11.65 76.85 11.64 76.99 11.49 77.14 C11.28 77.34 11.08 77.55 10.87 77.75
							 C10.7 77.93 10.58 77.94 10.38 77.79 C9.96 77.49 9.54 77.2 9.12 76.89 C9.06 76.85 9.01 76.84 8.94 76.88
							 C8.56 77.11 8.15 77.28 7.72 77.39 C7.64 77.41 7.61 77.45 7.6 77.52 C7.52 78.01 7.44 78.5 7.36 78.98
							 C7.34 79.15 7.28 79.28 7.13 79.37 ZM8.23 72.82 A1.68158 1.68162 -180 1 0 4.86 72.82 A1.68158 1.68162
							 -180 1 0 8.23 72.82 Z" class="st9"/>
			</g>
		</g>
		<g id="shape7-28" v:mID="7" v:groupContext="shape" transform="translate(58.9733,-25.4925) rotate(30)">
			<title>工作表.7</title>
			<g id="shadow7-29" v:groupContext="shadow" v:shadowOffsetX="3" v:shadowOffsetY="0" v:shadowType="1" v:shadowAngle="57"
					transform="matrix(1,0,0,1,2.59808,-1.5)" class="st1">
				<path d="M3.13 54.92 A10.3106 8.83089 0 0 1 1.81 72.03 A2.12598 2.12598 -180 0 0 -0 74.13 L0 74.59 A4.25197 4.25197
							 -180 0 0 5.29 78.72 A18.7182 16.0319 -180 0 0 2.36 47.43 A2.12598 2.12598 -180 0 0 0 49.55 L-0 50.82
							 A4.25197 4.25197 -180 0 0 3.13 54.92 Z" class="st6"/>
			</g>
			<path d="M3.13 54.92 A10.3106 8.83089 0 0 1 1.81 72.03 A2.12598 2.12598 -180 0 0 -0 74.13 L0 74.59 A4.25197 4.25197 -180
						 0 0 5.29 78.72 A18.7182 16.0319 -180 0 0 2.36 47.43 A2.12598 2.12598 -180 0 0 0 49.55 L-0 50.82 A4.25197
						 4.25197 -180 0 0 3.13 54.92 Z" class="st10"/>
		</g>
		<g id="shape12-33" v:mID="12" v:groupContext="shape" transform="translate(54.8811,-7.56737) rotate(10)">
			<title>工作表.12</title>
			<g id="shadow12-34" v:groupContext="shadow" v:shadowOffsetX="3" v:shadowOffsetY="0" v:shadowType="1" v:shadowAngle="57"
					transform="matrix(1,0,0,1,2.95442,-0.520945)" class="st1">
				<path d="M18.55 70.2 A8.7537 9.10615 0 1 1 22.53 53.7 L22.53 50.25 A7.08661 7.08661 -180 0 0 13.95 43.33 A17.5074
							 18.2123 -180 0 0 19.38 79.27 A3.54331 3.54331 -180 0 0 22.53 75.74 L22.53 73.72 A3.54331 3.54331 -180
							 0 0 18.55 70.2 Z" class="st6"/>
			</g>
			<path d="M18.55 70.2 A8.7537 9.10615 0 1 1 22.53 53.7 L22.53 50.25 A7.08661 7.08661 -180 0 0 13.95 43.33 A17.5074 18.2123
						 -180 0 0 19.38 79.27 A3.54331 3.54331 -180 0 0 22.53 75.74 L22.53 73.72 A3.54331 3.54331 -180 0 0 18.55
						 70.2 Z" class="st7"/>
		</g>
		<g id="group13-38" transform="translate(43.7911,-24.0531) rotate(-20)" v:mID="13" v:groupContext="group">
			<v:userDefs>
				<v:ud v:nameU="visVersion" v:prompt="" v:val="VT0(17):26"/>
			</v:userDefs>
			<title>齿轮.13</title>
			<g id="shape14-39" v:mID="14" v:groupContext="shape">
				<title>工作表.14</title>
				<g id="shadow14-40" v:groupContext="shadow" v:shadowOffsetX="3" v:shadowOffsetY="0" v:shadowType="1"
						v:shadowAngle="57" transform="matrix(1,0,0,1,2.81908,1.02606)" class="st1">
					<path d="M6.7 79.37 C6.33 79.37 5.97 79.37 5.6 79.37 C5.47 79.3 5.41 79.19 5.39 79.05 C5.32 78.59 5.24 78.13
								 5.17 77.67 C5.15 77.58 5.13 77.53 5.02 77.5 C4.63 77.41 4.26 77.25 3.91 77.04 C3.84 77 3.79 77 3.72
								 77.05 C3.33 77.33 2.94 77.61 2.55 77.89 C2.37 78.02 2.24 78.01 2.09 77.85 C1.9 77.67 1.72 77.49
								 1.53 77.3 C1.35 77.12 1.34 77.01 1.49 76.81 C1.77 76.42 2.04 76.04 2.32 75.65 C2.37 75.59 2.38 75.54
								 2.34 75.47 C2.12 75.11 1.96 74.73 1.86 74.32 C1.84 74.25 1.81 74.22 1.74 74.21 C1.28 74.14 0.83
								 74.06 0.37 73.99 C0.21 73.97 0.08 73.92 0 73.77 C0 73.4 0 73.04 0 72.67 C0.07 72.54 0.19 72.48 0.34
								 72.45 C0.79 72.39 1.24 72.31 1.7 72.24 C1.8 72.22 1.85 72.18 1.87 72.08 C1.97 71.69 2.12 71.32 2.33
								 70.98 C2.37 70.91 2.37 70.86 2.32 70.79 C2.04 70.4 1.76 70.01 1.48 69.61 C1.35 69.44 1.36 69.31
								 1.51 69.16 C1.7 68.97 1.89 68.78 2.09 68.59 C2.25 68.43 2.36 68.42 2.55 68.55 C2.94 68.83 3.34 69.12
								 3.73 69.4 C3.79 69.44 3.82 69.45 3.89 69.41 C4.25 69.19 4.64 69.03 5.05 68.93 C5.12 68.91 5.15 68.87
								 5.16 68.8 C5.23 68.35 5.31 67.9 5.38 67.44 C5.4 67.28 5.45 67.15 5.6 67.07 C5.97 67.07 6.33 67.07
								 6.7 67.07 C6.83 67.14 6.89 67.25 6.91 67.39 C6.98 67.85 7.06 68.31 7.13 68.77 C7.15 68.87 7.19 68.91
								 7.29 68.94 C7.68 69.04 8.05 69.2 8.4 69.41 C8.47 69.44 8.51 69.44 8.57 69.4 C8.96 69.11 9.36 68.83
								 9.75 68.55 C9.94 68.42 10.06 68.43 10.22 68.59 C10.4 68.77 10.58 68.95 10.77 69.14 C10.95 69.32
								 10.96 69.43 10.81 69.63 C10.53 70.02 10.25 70.41 9.97 70.8 C9.93 70.85 9.92 70.89 9.96 70.96 C10.18
								 71.32 10.34 71.71 10.44 72.12 C10.46 72.19 10.5 72.22 10.57 72.23 C11.02 72.3 11.47 72.38 11.93
								 72.45 C12.09 72.47 12.22 72.52 12.3 72.67 C12.3 73.03 12.3 73.39 12.3 73.75 C12.25 73.89 12.14 73.95
								 11.99 73.98 C11.52 74.05 11.05 74.13 10.58 74.21 C10.5 74.22 10.46 74.24 10.44 74.33 C10.34 74.74
								 10.18 75.12 9.96 75.48 C9.92 75.54 9.93 75.58 9.97 75.64 C10.26 76.03 10.55 76.43 10.83 76.83 C10.95
								 77 10.94 77.13 10.79 77.27 C10.6 77.47 10.41 77.66 10.22 77.85 C10.06 78.01 9.94 78.02 9.75 77.89
								 C9.36 77.61 8.96 77.33 8.57 77.04 C8.51 77 8.47 76.99 8.4 77.03 C8.05 77.25 7.66 77.41 7.26 77.51
								 C7.18 77.53 7.15 77.56 7.14 77.63 C7.07 78.09 6.99 78.55 6.92 79.01 C6.9 79.16 6.84 79.29 6.7 79.37
								 ZM7.73 73.22 A1.58006 1.5801 -180 1 0 4.57 73.22 A1.58006 1.5801 -180 1 0 7.73 73.22 Z"
							class="st8"/>
				</g>
				<path d="M6.7 79.37 C6.33 79.37 5.97 79.37 5.6 79.37 C5.47 79.3 5.41 79.19 5.39 79.05 C5.32 78.59 5.24 78.13 5.17
							 77.67 C5.15 77.58 5.13 77.53 5.02 77.5 C4.63 77.41 4.26 77.25 3.91 77.04 C3.84 77 3.79 77 3.72 77.05
							 C3.33 77.33 2.94 77.61 2.55 77.89 C2.37 78.02 2.24 78.01 2.09 77.85 C1.9 77.67 1.72 77.49 1.53 77.3
							 C1.35 77.12 1.34 77.01 1.49 76.81 C1.77 76.42 2.04 76.04 2.32 75.65 C2.37 75.59 2.38 75.54 2.34 75.47
							 C2.12 75.11 1.96 74.73 1.86 74.32 C1.84 74.25 1.81 74.22 1.74 74.21 C1.28 74.14 0.83 74.06 0.37 73.99
							 C0.21 73.97 0.08 73.92 0 73.77 C0 73.4 0 73.04 0 72.67 C0.07 72.54 0.19 72.48 0.34 72.45 C0.79 72.39
							 1.24 72.31 1.7 72.24 C1.8 72.22 1.85 72.18 1.87 72.08 C1.97 71.69 2.12 71.32 2.33 70.98 C2.37 70.91
							 2.37 70.86 2.32 70.79 C2.04 70.4 1.76 70.01 1.48 69.61 C1.35 69.44 1.36 69.31 1.51 69.16 C1.7 68.97
							 1.89 68.78 2.09 68.59 C2.25 68.43 2.36 68.42 2.55 68.55 C2.94 68.83 3.34 69.12 3.73 69.4 C3.79 69.44
							 3.82 69.45 3.89 69.41 C4.25 69.19 4.64 69.03 5.05 68.93 C5.12 68.91 5.15 68.87 5.16 68.8 C5.23 68.35
							 5.31 67.9 5.38 67.44 C5.4 67.28 5.45 67.15 5.6 67.07 C5.97 67.07 6.33 67.07 6.7 67.07 C6.83 67.14 6.89
							 67.25 6.91 67.39 C6.98 67.85 7.06 68.31 7.13 68.77 C7.15 68.87 7.19 68.91 7.29 68.94 C7.68 69.04 8.05
							 69.2 8.4 69.41 C8.47 69.44 8.51 69.44 8.57 69.4 C8.96 69.11 9.36 68.83 9.75 68.55 C9.94 68.42 10.06
							 68.43 10.22 68.59 C10.4 68.77 10.58 68.95 10.77 69.14 C10.95 69.32 10.96 69.43 10.81 69.63 C10.53 70.02
							 10.25 70.41 9.97 70.8 C9.93 70.85 9.92 70.89 9.96 70.96 C10.18 71.32 10.34 71.71 10.44 72.12 C10.46
							 72.19 10.5 72.22 10.57 72.23 C11.02 72.3 11.47 72.38 11.93 72.45 C12.09 72.47 12.22 72.52 12.3 72.67
							 C12.3 73.03 12.3 73.39 12.3 73.75 C12.25 73.89 12.14 73.95 11.99 73.98 C11.52 74.05 11.05 74.13 10.58
							 74.21 C10.5 74.22 10.46 74.24 10.44 74.33 C10.34 74.74 10.18 75.12 9.96 75.48 C9.92 75.54 9.93 75.58
							 9.97 75.64 C10.26 76.03 10.55 76.43 10.83 76.83 C10.95 77 10.94 77.13 10.79 77.27 C10.6 77.47 10.41
							 77.66 10.22 77.85 C10.06 78.01 9.94 78.02 9.75 77.89 C9.36 77.61 8.96 77.33 8.57 77.04 C8.51 77 8.47
							 76.99 8.4 77.03 C8.05 77.25 7.66 77.41 7.26 77.51 C7.18 77.53 7.15 77.56 7.14 77.63 C7.07 78.09 6.99
							 78.55 6.92 79.01 C6.9 79.16 6.84 79.29 6.7 79.37 ZM7.73 73.22 A1.58006 1.5801 -180 1 0 4.57 73.22 A1.58006
							 1.5801 -180 1 0 7.73 73.22 Z" class="st9"/>
			</g>
		</g>
		<g id="shape18-44" v:mID="18" v:groupContext="shape" transform="translate(80.4002,-4.6765) rotate(10)">
			<title>工作表.18</title>
			<g id="shadow18-45" v:groupContext="shadow" v:shadowOffsetX="3" v:shadowOffsetY="0" v:shadowType="1" v:shadowAngle="57"
					transform="matrix(1,0,0,1,2.95442,-0.520945)" class="st1">
				<path d="M7.59 66.7 L7.59 57.54 A3.79586 3.79586 -180 0 0 3.8 53.74 L3.8 53.74 A3.79586 3.79586 -180 0 0 0 57.54
							 L0 70.18 L0 75.57 A3.79586 3.79586 -180 0 0 3.8 79.37 L7.59 79.37 L9.97 79.37 A4.59264 4.59264 -180
							 0 0 14.56 74.78 L14.56 73.67 A3.48398 3.48398 -180 0 0 11.08 70.18 L11.08 70.18 A3.48398 3.48398 0 0
							 1 7.59 66.7 Z" class="st6"/>
			</g>
			<path d="M7.59 66.7 L7.59 57.54 A3.79586 3.79586 -180 0 0 3.8 53.74 L3.8 53.74 A3.79586 3.79586 -180 0 0 0 57.54 L0 70.18
						 L0 75.57 A3.79586 3.79586 -180 0 0 3.8 79.37 L7.59 79.37 L9.97 79.37 A4.59264 4.59264 -180 0 0 14.56 74.78
						 L14.56 73.67 A3.48398 3.48398 -180 0 0 11.08 70.18 L11.08 70.18 A3.48398 3.48398 0 0 1 7.59 66.7 Z"
					class="st10"/>
		</g>
		<g id="shape59-49" v:mID="59" v:groupContext="shape" transform="translate(106.647,-47.6697) rotate(-9.03299)">
			<title>工作表.59</title>
			<path d="M0 79.37 L67.71 79.37" class="st11"/>
		</g>
		<g id="shape61-55" v:mID="61" v:groupContext="shape" transform="translate(88.5343,-29.523) rotate(-10.8383)">
			<title>工作表.61</title>
			<path d="M0 79.37 L92.98 79.37" class="st11"/>
		</g>
		<g id="shape62-60" v:mID="62" v:groupContext="shape" transform="translate(111.775,-21.2131) rotate(-10.4146)">
			<title>工作表.62</title>
			<path d="M0 79.37 L72.43 79.37" class="st11"/>
		</g>
		<g id="shape63-65" v:mID="63" v:groupContext="shape" transform="translate(145.925,-16.919) rotate(-9.03299)">
			<title>工作表.63</title>
			<path d="M0 79.37 L44.44 79.37" class="st11"/>
		</g>
		<g id="shape33-70" v:mID="33" v:groupContext="shape" transform="translate(149.897,-6.58571)">
			<title>环形</title>
			<v:userDefs>
				<v:ud v:nameU="visVersion" v:prompt="" v:val="VT0(15):26"/>
			</v:userDefs>
			<g id="shadow33-71" v:groupContext="shadow" v:shadowOffsetX="0" v:shadowOffsetY="0" v:shadowType="2"
					v:shadowScale="0.42" v:shadowAngle="57" transform="matrix(1,0,-0.352242,0.228748,27.9574,61.2143)" class="st1">
				<path d="M40.77 61.16 A20.3862 18.2123 -180 1 0 -0 61.16 A20.3862 18.2123 -180 1 0 40.77 61.16 ZM9.51 61.16 A10.8726
							 9.71323 0 1 0 31.26 61.16 A10.8726 9.71323 0 1 0 9.51 61.16 Z" class="st12"/>
			</g>
			<path d="M40.77 61.16 A20.3862 18.2123 -180 1 0 -0 61.16 A20.3862 18.2123 -180 1 0 40.77 61.16 ZM9.51 61.16 A10.8726
						 9.71323 0 1 0 31.26 61.16 A10.8726 9.71323 0 1 0 9.51 61.16 Z" class="st13"/>
		</g>
		<g id="shape51-75" v:mID="51" v:groupContext="shape" transform="translate(85.9751,-6.58571)">
			<title>工作表.51</title>
			<g id="shadow51-76" v:groupContext="shadow" v:shadowOffsetX="0" v:shadowOffsetY="0" v:shadowType="2"
					v:shadowScale="0.42" v:shadowAngle="57" transform="matrix(1,0,-0.352242,0.228748,27.9574,61.2143)" class="st1">
				<path d="M54.94 28.15 A7.41032 8.09436 -180 0 0 49.49 32.24 L35.53 59.68 L32.7 33.22 A5.32563 5.81723 -180 0 0 32.1
							 31.13 A3.26937 3.57117 -180 0 0 28.86 28.07 L27.66 28.07 A7.41032 8.09436 -180 0 0 27.52 28.08 A5.32563
							 5.81723 -180 0 0 27.41 28.07 A4.21749 4.6068 -180 0 0 26.63 28.15 A7.41032 8.09436 -180 0 0 21.18 32.24
							 L0.5 72.88 A3.97444 4.34132 -180 0 0 3.97 79.33 A7.41032 8.09436 -180 0 0 10.45 75.17 L24.71 47.15 L27.61
							 74.23 A5.32563 5.81723 -180 0 0 29.23 77.77 A3.97444 4.34132 -180 0 0 32.28 79.33 L32.3 79.33 A5.32563
							 5.81723 -180 0 0 32.9 79.37 A4.21749 4.6068 -180 0 0 34.93 78.8 A7.41032 8.09436 -180 0 0 38.76 75.17
							 L53.02 47.15 L55.91 74.23 A5.32563 5.81723 -180 0 0 61.2 79.37 A4.21749 4.6068 -180 0 0 65.39 74.23
							 L61 33.22 A5.32563 5.81723 -180 0 0 60.4 31.13 A3.26937 3.57117 -180 0 0 57.17 28.07 L55.97 28.07 A7.41032
							 8.09436 -180 0 0 55.83 28.08 A5.32563 5.81723 -180 0 0 55.71 28.07 A4.21749 4.6068 -180 0 0 54.94 28.15
							 Z" class="st14"/>
			</g>
			<path d="M54.94 28.15 A7.41032 8.09436 -180 0 0 49.49 32.24 L35.53 59.68 L32.7 33.22 A5.32563 5.81723 -180 0 0 32.1 31.13
						 A3.26937 3.57117 -180 0 0 28.86 28.07 L27.66 28.07 A7.41032 8.09436 -180 0 0 27.52 28.08 A5.32563 5.81723
						 -180 0 0 27.41 28.07 A4.21749 4.6068 -180 0 0 26.63 28.15 A7.41032 8.09436 -180 0 0 21.18 32.24 L0.5 72.88
						 A3.97444 4.34132 -180 0 0 3.97 79.33 A7.41032 8.09436 -180 0 0 10.45 75.17 L24.71 47.15 L27.61 74.23 A5.32563
						 5.81723 -180 0 0 29.23 77.77 A3.97444 4.34132 -180 0 0 32.28 79.33 L32.3 79.33 A5.32563 5.81723 -180 0 0
						 32.9 79.37 A4.21749 4.6068 -180 0 0 34.93 78.8 A7.41032 8.09436 -180 0 0 38.76 75.17 L53.02 47.15 L55.91
						 74.23 A5.32563 5.81723 -180 0 0 61.2 79.37 A4.21749 4.6068 -180 0 0 65.39 74.23 L61 33.22 A5.32563 5.81723
						 -180 0 0 60.4 31.13 A3.26937 3.57117 -180 0 0 57.17 28.07 L55.97 28.07 A7.41032 8.09436 -180 0 0 55.83 28.08
						 A5.32563 5.81723 -180 0 0 55.71 28.07 A4.21749 4.6068 -180 0 0 54.94 28.15 Z" class="st15"/>
		</g>
		<g id="shape70-80" v:mID="70" v:groupContext="shape" transform="translate(270.25,107.408) rotate(-165)">
			<title>椭圆形.67</title>
			<v:userDefs>
				<v:ud v:nameU="visVersion" v:val="VT0(15):26"/>
			</v:userDefs>
			<g id="shadow70-81" v:groupContext="shadow" v:shadowOffsetX="3" v:shadowOffsetY="0" v:shadowType="1"
					transform="matrix(1,0,0,1,-2.89778,0.776457)" class="st1">
				<path d="M0 74.9 A1.4955 4.46843 0 1 1 2.99 74.9 A1.4955 4.46843 0 1 1 0 74.9 Z" class="st8"/>
			</g>
			<path d="M0 74.9 A1.4955 4.46843 0 1 1 2.99 74.9 A1.4955 4.46843 0 1 1 0 74.9 Z" class="st16"/>
		</g>
		<g id="shape72-85" v:mID="72" v:groupContext="shape" transform="translate(154.202,84.6709) rotate(-135)">
			<title>椭圆形.72</title>
			<v:userDefs>
				<v:ud v:nameU="visVersion" v:val="VT0(15):26"/>
			</v:userDefs>
			<g id="shadow72-86" v:groupContext="shadow" v:shadowOffsetX="3" v:shadowOffsetY="0" v:shadowType="1"
					transform="matrix(1,0,0,1,-2.12132,2.12132)" class="st1">
				<path d="M0 73.66 A1.98132 5.70849 0 1 1 3.96 73.66 A1.98132 5.70849 0 1 1 -0 73.66 Z" class="st8"/>
			</g>
			<path d="M0 73.66 A1.98132 5.70849 0 1 1 3.96 73.66 A1.98132 5.70849 0 1 1 -0 73.66 Z" class="st16"/>
		</g>
		<g id="shape73-90" v:mID="73" v:groupContext="shape" transform="translate(203.19,133.363) rotate(-165)">
			<title>椭圆形.73</title>
			<v:userDefs>
				<v:ud v:nameU="visVersion" v:val="VT0(15):26"/>
			</v:userDefs>
			<g id="shadow73-91" v:groupContext="shadow" v:shadowOffsetX="3" v:shadowOffsetY="0" v:shadowType="1"
					transform="matrix(1,0,0,1,-2.89778,0.776457)" class="st1">
				<path d="M0 76.26 A1.73303 3.10821 0 0 1 3.47 76.26 A1.73303 3.10821 0 1 1 0 76.26 Z" class="st8"/>
			</g>
			<path d="M0 76.26 A1.73303 3.10821 0 0 1 3.47 76.26 A1.73303 3.10821 0 1 1 0 76.26 Z" class="st16"/>
		</g>
		<g id="shape74-95" v:mID="74" v:groupContext="shape" transform="translate(317.687,136.584) rotate(180)">
			<title>椭圆形.74</title>
			<v:userDefs>
				<v:ud v:nameU="visVersion" v:val="VT0(15):26"/>
			</v:userDefs>
			<g id="shadow74-96" v:groupContext="shadow" v:shadowOffsetX="3" v:shadowOffsetY="0" v:shadowType="1"
					transform="matrix(1,0,0,1,-3,0)" class="st1">
				<path d="M0 74.9 A1.27484 4.46843 0 0 1 2.55 74.9 A1.27484 4.46843 0 0 1 0 74.9 Z" class="st8"/>
			</g>
			<path d="M0 74.9 A1.27484 4.46843 0 0 1 2.55 74.9 A1.27484 4.46843 0 0 1 0 74.9 Z" class="st16"/>
		</g>
		<g id="shape76-100" v:mID="76" v:groupContext="shape" transform="translate(148.837,36.2181) rotate(-83)">
			<title>椭圆形.76</title>
			<v:userDefs>
				<v:ud v:nameU="visVersion" v:val="VT0(15):26"/>
			</v:userDefs>
			<g id="shadow76-101" v:groupContext="shadow" v:shadowOffsetX="3" v:shadowOffsetY="0" v:shadowType="1"
					transform="matrix(1,0,0,1,0.365608,2.97764)" class="st1">
				<path d="M0 71.33 a0.867069 8.03899 0 1 1 1.73414 -1.13687E-13 a0.867069 8.03899 0 1 1 -1.73414 1.42109E-14 Z"
						class="st8"/>
			</g>
			<path d="M0 71.33 a0.867069 8.03899 0 1 1 1.73414 -1.13687E-13 a0.867069 8.03899 0 1 1 -1.73414 1.42109E-14 Z"
					class="st16"/>
		</g>
		<g id="shape77-105" v:mID="77" v:groupContext="shape" transform="translate(252.444,-29.12) rotate(10)">
			<title>椭圆形.77</title>
			<v:userDefs>
				<v:ud v:nameU="visVersion" v:val="VT0(15):26"/>
			</v:userDefs>
			<g id="shadow77-106" v:groupContext="shadow" v:shadowOffsetX="3" v:shadowOffsetY="0" v:shadowType="1"
					transform="matrix(1,0,0,1,2.95442,-0.520945)" class="st1">
				<path d="M0 71.33 a0.958973 8.03899 0 1 1 1.91795 -1.13687E-13 a0.958973 8.03899 0 1 1 -1.91795 0 Z" class="st8"/>
			</g>
			<path d="M0 71.33 a0.958973 8.03899 0 1 1 1.91795 -1.13687E-13 a0.958973 8.03899 0 1 1 -1.91795 0 Z" class="st16"/>
		</g>
		<g id="shape78-110" v:mID="78" v:groupContext="shape" transform="translate(311.016,127.009) rotate(-165)">
			<title>椭圆形.78</title>
			<v:userDefs>
				<v:ud v:nameU="visVersion" v:val="VT0(15):26"/>
			</v:userDefs>
			<g id="shadow78-111" v:groupContext="shadow" v:shadowOffsetX="3" v:shadowOffsetY="0" v:shadowType="1"
					transform="matrix(1,0,0,1,-2.89778,0.776457)" class="st1">
				<path d="M0 74.9 a0.943508 4.46843 0 1 1 1.88702 -7.10543E-14 a0.943508 4.46843 0 1 1 -1.88702 0 Z" class="st8"/>
			</g>
			<path d="M0 74.9 a0.943508 4.46843 0 1 1 1.88702 -7.10543E-14 a0.943508 4.46843 0 1 1 -1.88702 0 Z" class="st16"/>
		</g>
		<g id="shape79-115" v:mID="79" v:groupContext="shape" transform="translate(354.989,138.331) rotate(180)">
			<title>椭圆形.79</title>
			<v:userDefs>
				<v:ud v:nameU="visVersion" v:val="VT0(15):26"/>
			</v:userDefs>
			<g id="shadow79-116" v:groupContext="shadow" v:shadowOffsetX="3" v:shadowOffsetY="0" v:shadowType="1"
					transform="matrix(1,0,0,1,-3,0)" class="st1">
				<path d="M0 75.5 A3.71942 3.86955 0 1 1 7.44 75.5 A3.71942 3.86955 0 0 1 0 75.5 Z" class="st8"/>
			</g>
			<path d="M0 75.5 A3.71942 3.86955 0 1 1 7.44 75.5 A3.71942 3.86955 0 0 1 0 75.5 Z" class="st16"/>
		</g>
		<g id="shape80-120" v:mID="80" v:groupContext="shape" transform="translate(204.09,-29.4803) rotate(-40)">
			<title>椭圆形.80</title>
			<v:userDefs>
				<v:ud v:nameU="visVersion" v:val="VT0(15):26"/>
			</v:userDefs>
			<g id="shadow80-121" v:groupContext="shadow" v:shadowOffsetX="3" v:shadowOffsetY="0" v:shadowType="1"
					transform="matrix(1,-5.55112E-17,5.55112E-17,1,2.29813,1.92836)" class="st1">
				<path d="M0 76.33 A1.5191 3.04112 0 0 1 3.04 76.33 A1.5191 3.04112 0 0 1 0 76.33 Z" class="st8"/>
			</g>
			<path d="M0 76.33 A1.5191 3.04112 0 0 1 3.04 76.33 A1.5191 3.04112 0 0 1 0 76.33 Z" class="st16"/>
		</g>
		<g id="shape81-125" v:mID="81" v:groupContext="shape" transform="translate(278.491,132.621) rotate(-165)">
			<title>椭圆形.81</title>
			<v:userDefs>
				<v:ud v:nameU="visVersion" v:val="VT0(15):26"/>
			</v:userDefs>
			<g id="shadow81-126" v:groupContext="shadow" v:shadowOffsetX="3" v:shadowOffsetY="0" v:shadowType="1"
					transform="matrix(1,0,0,1,-2.89778,0.776457)" class="st1">
				<path d="M0 74.9 A1.19427 4.46843 0 0 1 2.39 74.9 A1.19427 4.46843 0 1 1 0 74.9 Z" class="st8"/>
			</g>
			<path d="M0 74.9 A1.19427 4.46843 0 0 1 2.39 74.9 A1.19427 4.46843 0 1 1 0 74.9 Z" class="st16"/>
		</g>
		<g id="shape82-130" v:mID="82" v:groupContext="shape" transform="translate(373.313,128.756) rotate(135)">
			<title>椭圆形.82</title>
			<v:userDefs>
				<v:ud v:nameU="visVersion" v:val="VT0(15):26"/>
			</v:userDefs>
			<g id="shadow82-131" v:groupContext="shadow" v:shadowOffsetX="3" v:shadowOffsetY="0" v:shadowType="1"
					transform="matrix(1,0,0,1,-2.12132,-2.12132)" class="st1">
				<path d="M0 76.13 A3.79095 3.24058 0 0 1 7.58 76.13 A3.79095 3.24058 0 0 1 0 76.13 Z" class="st8"/>
			</g>
			<path d="M0 76.13 A3.79095 3.24058 0 0 1 7.58 76.13 A3.79095 3.24058 0 0 1 0 76.13 Z" class="st16"/>
		</g>
	</g>
</svg>
